<?xml version="1.0" encoding="UTF-8" standalone="no"?>
<!DOCTYPE svg PUBLIC "-//W3C//DTD SVG 1.1//EN" "http://www.w3.org/Graphics/SVG/1.1/DTD/svg11.dtd">
<svg version="1.1" xmlns="http://www.w3.org/2000/svg" xmlns:xlink="http://www.w3.org/1999/xlink" preserveAspectRatio="xMidYMid meet" viewBox="0 0 640 640" width="640" height="640"><defs><path d="M608.38 346.98C608.38 500.73 480.36 625.55 322.67 625.55C164.98 625.55 36.95 500.73 36.95 346.98C36.95 193.23 164.98 68.41 322.67 68.41C480.36 68.41 608.38 193.23 608.38 346.98Z" id="a2pB02CDVI"></path><path d="M326.44 175.29L328.03 175.33L329.62 175.39L331.21 175.47L332.79 175.57L334.37 175.68L335.95 175.82L337.52 175.97L339.09 176.14L340.65 176.32L342.21 176.53L343.77 176.76L345.32 177L346.87 177.26L348.41 177.54L349.95 177.84L351.49 178.15L353.02 178.48L354.54 178.84L356.07 179.2L357.58 179.59L359.1 180L360.61 180.42L362.11 180.86L363.61 181.32L365.1 181.8L366.59 182.3L368.07 182.81L369.55 183.34L371.03 183.89L372.5 184.46L373.96 185.04L375.42 185.64L376.87 186.26L378.32 186.9L379.76 187.56L381.2 188.23L382.63 188.92L384.05 189.63L385.4 190.33L386.75 191.04L388.08 191.76L389.41 192.5L390.73 193.25L392.04 194.02L393.35 194.81L394.64 195.61L395.93 196.42L397.2 197.25L398.47 198.1L399.73 198.96L400.98 199.83L402.22 200.71L403.45 201.62L404.67 202.53L405.87 203.46L407.07 204.4L408.26 205.35L409.44 206.32L410.61 207.3L411.76 208.3L412.91 209.31L414.04 210.33L415.16 211.36L416.27 212.41L417.37 213.46L418.46 214.53L419.53 215.62L420.59 216.71L421.64 217.81L422.68 218.93L423.7 220.06L424.72 221.2L425.71 222.35L426.7 223.52L427.67 224.69L428.63 225.87L429.57 227.07L430.5 228.28L430.65 228.47L430.78 228.67L430.91 228.88L431.02 229.08L431.13 229.29L431.23 229.51L431.32 229.72L431.39 229.94L431.47 230.16L431.53 230.38L431.58 230.6L431.62 230.83L431.66 231.05L431.68 231.28L431.7 231.5L431.71 231.73L431.71 231.96L431.7 232.18L431.68 232.41L431.66 232.63L431.62 232.86L431.58 233.08L431.53 233.3L431.47 233.52L431.4 233.74L431.32 233.95L431.24 234.16L431.15 234.37L431.04 234.57L430.93 234.77L430.82 234.97L430.69 235.17L430.56 235.35L430.41 235.54L430.26 235.72L430.1 235.89L429.94 236.06L429.76 236.23L429.58 236.38L429.39 236.53L429.19 236.68L428.99 236.81L428.79 236.94L428.58 237.05L428.37 237.16L428.16 237.26L427.95 237.35L427.73 237.42L427.51 237.5L427.29 237.56L427.06 237.61L426.84 237.65L426.61 237.69L426.39 237.71L426.16 237.73L425.93 237.74L425.71 237.74L425.48 237.73L425.26 237.71L425.03 237.69L424.81 237.65L424.59 237.61L424.36 237.56L424.15 237.5L423.93 237.43L423.72 237.36L423.5 237.27L423.3 237.18L423.09 237.08L422.89 236.97L422.69 236.85L422.5 236.72L422.31 236.59L422.13 236.44L421.95 236.29L421.77 236.14L421.6 235.97L421.44 235.8L421.28 235.61L421.13 235.42L419.35 233.14L417.52 230.91L415.65 228.73L413.74 226.6L411.78 224.52L409.79 222.49L407.75 220.51L405.68 218.58L403.56 216.71L401.41 214.89L399.22 213.13L397 211.41L394.73 209.76L392.44 208.15L390.11 206.6L387.75 205.11L385.36 203.67L382.93 202.29L380.48 200.97L378 199.71L375.48 198.5L372.94 197.35L370.38 196.25L367.79 195.22L365.17 194.25L362.53 193.33L359.86 192.48L357.18 191.69L354.47 190.95L351.74 190.28L348.99 189.68L346.22 189.13L343.44 188.65L340.63 188.22L337.81 187.87L334.98 187.57L332.12 187.35L329.26 187.18L326.38 187.08L323.49 187.05L323.26 187.05L320.8 187.08L318.35 187.16L315.91 187.28L313.48 187.45L311.06 187.67L308.64 187.94L306.24 188.26L303.85 188.62L301.47 189.03L299.1 189.48L296.74 189.98L294.4 190.53L292.07 191.12L289.76 191.76L287.46 192.44L285.18 193.17L282.91 193.94L280.66 194.76L278.42 195.62L276.2 196.53L274 197.48L271.82 198.47L269.66 199.51L267.52 200.59L265.4 201.71L263.29 202.88L261.21 204.09L259.15 205.34L257.12 206.63L255.1 207.97L253.11 209.34L251.15 210.76L249.21 212.22L247.29 213.72L245.4 215.27L243.53 216.85L241.69 218.47L239.88 220.13L238.09 221.84L236.34 223.58L234.61 225.36L232.93 227.16L231.29 228.99L229.69 230.85L228.12 232.73L226.6 234.64L225.12 236.58L223.69 238.54L222.29 240.52L220.93 242.53L219.62 244.56L218.35 246.61L217.12 248.68L215.94 250.78L214.79 252.89L213.69 255.03L212.64 257.19L211.62 259.36L210.65 261.55L209.73 263.76L208.85 265.99L208.01 268.24L207.22 270.5L206.47 272.78L205.77 275.07L205.11 277.38L204.5 279.7L203.93 282.04L203.41 284.39L202.94 286.75L202.51 289.13L202.13 291.51L201.79 293.91L201.51 296.32L201.27 298.73L201.07 301.16L200.93 303.6L200.83 306.04L200.78 308.49L200.78 310.95L200.81 312.92L200.88 314.88L200.97 316.83L201.1 318.78L201.26 320.73L201.44 322.66L201.66 324.59L201.9 326.52L202.18 328.44L202.48 330.35L202.82 332.25L203.19 334.15L203.58 336.03L204 337.91L204.46 339.79L204.94 341.65L205.45 343.5L205.99 345.35L206.56 347.18L207.16 349.01L207.79 350.82L208.45 352.63L209.14 354.43L209.85 356.21L210.59 357.99L211.36 359.75L212.16 361.5L212.99 363.24L213.85 364.97L214.73 366.68L215.65 368.39L216.59 370.08L217.56 371.76L218.55 373.42L219.58 375.07L220.63 376.71L221.71 378.33L222.81 379.94L223.95 381.54L225.11 383.12L225.63 383.83L226.14 384.54L226.64 385.27L227.12 385.99L227.59 386.73L228.05 387.46L228.5 388.21L228.93 388.96L229.35 389.71L229.76 390.47L230.16 391.24L230.54 392L230.91 392.78L231.27 393.56L231.61 394.34L231.94 395.13L232.26 395.92L232.56 396.71L232.85 397.51L233.13 398.32L233.4 399.13L233.65 399.94L233.89 400.75L234.11 401.57L234.32 402.39L234.52 403.22L234.71 404.05L234.88 404.88L235.04 405.71L235.18 406.55L235.31 407.39L235.43 408.23L235.53 409.08L235.62 409.92L235.7 410.77L235.76 411.62L235.81 412.48L235.84 413.33L235.87 414.19L235.87 415.05L235.87 415.81L235.9 417.01L235.97 418.2L236.09 419.37L236.25 420.53L236.46 421.67L236.72 422.8L237.02 423.91L237.36 425L237.74 426.08L238.16 427.13L238.63 428.17L239.13 429.18L239.67 430.17L240.24 431.14L240.85 432.08L241.5 433L242.18 433.89L242.89 434.75L243.63 435.58L244.41 436.39L245.21 437.16L246.05 437.91L246.91 438.62L247.8 439.3L248.72 439.95L249.66 440.56L250.63 441.13L251.62 441.67L252.63 442.17L253.66 442.63L254.72 443.06L255.79 443.44L256.89 443.78L258 444.08L259.13 444.33L260.27 444.54L261.43 444.71L262.6 444.83L263.79 444.9L264.98 444.93L317.6 444.93L317.6 370.28L316.01 370.04L314.44 369.74L312.9 369.38L311.37 368.97L309.87 368.5L308.39 367.99L306.93 367.42L305.5 366.8L304.1 366.13L302.73 365.42L301.38 364.65L300.07 363.85L298.78 362.99L297.53 362.1L296.31 361.16L295.13 360.18L293.98 359.16L292.87 358.1L291.79 357L290.76 355.87L289.76 354.7L288.81 353.49L287.89 352.25L287.02 350.98L286.2 349.68L285.42 348.34L284.69 346.98L284 345.59L283.36 344.17L282.77 342.72L282.24 341.25L281.75 339.76L281.32 338.24L280.94 336.7L280.62 335.15L280.35 333.57L280.14 331.97L279.99 330.35L279.9 328.72L279.87 327.08L279.88 326.83L279.89 326.59L279.92 326.35L279.95 326.12L279.99 325.89L280.04 325.66L280.1 325.43L280.17 325.21L280.25 325L280.33 324.78L280.43 324.57L280.53 324.37L280.64 324.17L280.75 323.97L280.88 323.78L281.01 323.59L281.15 323.41L281.29 323.24L281.44 323.07L281.6 322.91L281.76 322.75L281.93 322.6L282.11 322.46L282.29 322.32L282.47 322.19L282.66 322.06L282.86 321.95L283.06 321.84L283.26 321.74L283.47 321.64L283.69 321.56L283.9 321.48L284.13 321.41L284.35 321.35L284.58 321.3L284.81 321.26L285.05 321.23L285.28 321.2L285.52 321.19L285.77 321.18L286.01 321.19L286.25 321.2L286.49 321.23L286.72 321.26L286.95 321.3L287.18 321.35L287.41 321.41L287.63 321.48L287.85 321.56L288.06 321.64L288.27 321.74L288.48 321.84L288.68 321.95L288.87 322.06L289.06 322.19L289.25 322.32L289.43 322.46L289.6 322.6L289.77 322.75L289.94 322.91L290.09 323.07L290.24 323.24L290.39 323.41L290.52 323.59L290.65 323.78L290.78 323.97L290.89 324.17L291 324.37L291.1 324.57L291.2 324.78L291.28 325L291.36 325.21L291.43 325.43L291.49 325.66L291.54 325.89L291.58 326.12L291.62 326.35L291.64 326.59L291.66 326.83L291.66 327.08L291.69 328.39L291.77 329.68L291.9 330.97L292.08 332.23L292.31 333.48L292.59 334.72L292.91 335.93L293.29 337.13L293.7 338.3L294.17 339.45L294.67 340.58L295.22 341.69L295.81 342.77L296.44 343.83L297.1 344.86L297.81 345.86L298.55 346.83L299.33 347.78L300.15 348.69L300.99 349.57L301.87 350.42L302.79 351.23L303.73 352.01L304.7 352.76L305.71 353.46L306.74 354.13L307.79 354.76L308.87 355.35L309.98 355.89L311.11 356.4L312.27 356.86L313.44 357.28L314.64 357.65L315.85 357.98L317.08 358.26L318.33 358.49L319.6 358.67L320.88 358.8L322.18 358.88L323.49 358.91L324.8 358.88L326.1 358.8L327.38 358.67L328.65 358.49L329.9 358.26L331.13 357.98L332.34 357.65L333.54 357.28L334.71 356.86L335.87 356.4L337 355.89L338.11 355.35L339.19 354.76L340.24 354.13L341.27 353.46L342.28 352.76L343.25 352.01L344.19 351.23L345.11 350.42L345.99 349.57L346.83 348.69L347.65 347.78L348.43 346.83L349.17 345.86L349.88 344.86L350.54 343.83L351.17 342.77L351.76 341.69L352.31 340.58L352.81 339.45L353.28 338.3L353.69 337.13L354.07 335.93L354.39 334.72L354.67 333.48L354.9 332.23L355.08 330.97L355.21 329.68L355.29 328.39L355.32 327.08L355.32 326.83L355.34 326.59L355.36 326.35L355.4 326.12L355.44 325.89L355.49 325.66L355.55 325.43L355.62 325.21L355.7 325L355.78 324.78L355.88 324.57L355.98 324.37L356.09 324.17L356.2 323.97L356.33 323.78L356.46 323.59L356.59 323.41L356.74 323.24L356.89 323.07L357.05 322.91L357.21 322.75L357.38 322.6L357.55 322.46L357.73 322.32L357.92 322.19L358.11 322.06L358.3 321.95L358.5 321.84L358.71 321.74L358.92 321.64L359.13 321.56L359.35 321.48L359.57 321.41L359.8 321.35L360.03 321.3L360.26 321.26L360.49 321.23L360.73 321.2L360.97 321.19L361.21 321.18L361.46 321.19L361.7 321.2L361.93 321.23L362.17 321.26L362.4 321.3L362.63 321.35L362.85 321.41L363.08 321.48L363.29 321.56L363.51 321.64L363.72 321.74L363.92 321.84L364.12 321.95L364.32 322.06L364.51 322.19L364.69 322.32L364.87 322.46L365.05 322.6L365.22 322.75L365.38 322.91L365.54 323.07L365.69 323.24L365.83 323.41L365.97 323.59L366.1 323.78L366.23 323.97L366.34 324.17L366.45 324.37L366.55 324.57L366.65 324.78L366.73 325L366.81 325.21L366.88 325.43L366.94 325.66L366.99 325.89L367.03 326.12L367.07 326.35L367.09 326.59L367.1 326.83L367.11 327.08L367.08 328.72L366.99 330.35L366.84 331.97L366.63 333.57L366.36 335.15L366.04 336.7L365.66 338.24L365.23 339.76L364.74 341.25L364.21 342.72L363.62 344.17L362.98 345.59L362.29 346.98L361.56 348.34L360.78 349.68L359.96 350.98L359.09 352.25L358.17 353.49L357.22 354.7L356.22 355.87L355.19 357L354.11 358.1L353 359.16L351.85 360.18L350.67 361.16L349.45 362.1L348.2 362.99L346.91 363.85L345.6 364.65L344.25 365.42L342.88 366.13L341.48 366.8L340.05 367.42L338.59 367.99L337.11 368.5L335.61 368.97L334.08 369.38L332.54 369.74L330.97 370.04L329.38 370.28L329.38 444.93L382 444.93L383.19 444.9L384.38 444.83L385.55 444.71L386.71 444.54L387.86 444.33L388.98 444.08L390.09 443.78L391.19 443.44L392.26 443.06L393.32 442.63L394.35 442.17L395.36 441.67L396.35 441.13L397.32 440.56L398.26 439.95L399.18 439.3L400.07 438.62L400.93 437.91L401.77 437.16L402.57 436.39L403.35 435.58L404.09 434.75L404.8 433.89L405.48 433L406.13 432.08L406.74 431.14L407.31 430.17L407.85 429.18L408.35 428.17L408.82 427.13L409.24 426.08L409.62 425L409.96 423.91L410.26 422.8L410.52 421.67L410.73 420.53L410.89 419.37L411.01 418.2L411.08 417.01L411.11 415.81L411.11 415.06L411.11 414.2L411.14 413.35L411.17 412.5L411.22 411.65L411.28 410.8L411.35 409.95L411.44 409.11L411.55 408.26L411.66 407.42L411.79 406.58L411.93 405.75L412.09 404.92L412.25 404.09L412.44 403.26L412.63 402.44L412.84 401.62L413.06 400.81L413.29 400L413.53 399.19L413.79 398.39L414.06 397.59L414.34 396.8L414.64 396.01L414.95 395.23L415.27 394.45L415.6 393.68L415.94 392.92L416.3 392.16L416.67 391.41L417.05 390.66L417.44 389.92L417.85 389.19L418.26 388.47L418.69 387.75L419.13 387.04L419.58 386.34L420.05 385.64L420.52 384.95L421.01 384.28L421.5 383.6L422.7 381.99L423.87 380.36L425.01 378.72L426.12 377.06L427.2 375.39L428.26 373.7L429.28 372L430.28 370.29L431.24 368.56L432.18 366.82L433.09 365.06L433.97 363.3L434.81 361.52L435.63 359.73L436.42 357.92L437.18 356.11L437.91 354.28L438.61 352.45L439.28 350.6L439.91 348.74L440.52 346.87L441.1 344.99L441.65 343.11L442.16 341.21L442.65 339.3L443.11 337.39L443.53 335.46L443.92 333.53L444.29 331.59L444.62 329.64L444.92 327.68L445.19 325.72L445.43 323.74L445.63 321.77L445.81 319.78L445.95 317.79L446.06 315.79L446.14 313.79L446.19 311.78L446.21 309.76L446.2 308.29L446.17 306.82L446.13 305.35L446.07 303.89L445.99 302.43L445.9 300.97L445.79 299.52L445.66 298.07L445.52 296.62L445.36 295.18L445.18 293.74L444.99 292.31L444.78 290.88L444.55 289.45L444.31 288.03L444.05 286.61L443.77 285.19L443.47 283.78L443.16 282.38L442.83 280.98L442.49 279.58L442.13 278.19L441.75 276.8L441.36 275.41L440.94 274.03L440.52 272.66L440.07 271.29L439.61 269.92L439.13 268.56L438.64 267.2L438.13 265.85L437.6 264.5L437.06 263.16L436.5 261.82L435.92 260.49L435.33 259.17L434.72 257.84L434.09 256.53L433.45 255.21L432.79 253.91L432.68 253.69L432.58 253.47L432.5 253.25L432.42 253.02L432.35 252.8L432.29 252.57L432.24 252.34L432.2 252.11L432.17 251.88L432.15 251.65L432.14 251.43L432.14 251.2L432.14 250.97L432.16 250.74L432.18 250.52L432.21 250.29L432.25 250.07L432.3 249.85L432.36 249.63L432.42 249.41L432.5 249.2L432.58 248.99L432.67 248.78L432.77 248.57L432.87 248.37L432.98 248.17L433.11 247.98L433.23 247.79L433.37 247.61L433.51 247.43L433.67 247.26L433.82 247.09L433.99 246.93L434.16 246.77L434.34 246.62L434.53 246.48L434.72 246.34L434.92 246.21L435.13 246.09L435.35 245.97L435.56 245.87L435.78 245.77L436.01 245.68L436.23 245.61L436.46 245.54L436.68 245.48L436.91 245.43L437.14 245.39L437.37 245.36L437.6 245.34L437.83 245.33L438.06 245.32L438.28 245.33L438.51 245.34L438.74 245.37L438.96 245.4L439.18 245.44L439.41 245.49L439.62 245.54L439.84 245.61L440.06 245.68L440.27 245.76L440.47 245.85L440.68 245.95L440.88 246.06L441.08 246.17L441.27 246.29L441.46 246.42L441.64 246.56L441.82 246.7L441.99 246.85L442.16 247.01L442.32 247.18L442.48 247.35L442.63 247.53L442.77 247.72L442.91 247.91L443.04 248.11L443.16 248.32L443.28 248.53L444 249.96L444.71 251.4L445.39 252.85L446.06 254.3L446.71 255.75L447.35 257.21L447.96 258.68L448.56 260.15L449.14 261.63L449.7 263.11L450.24 264.6L450.76 266.09L451.27 267.59L451.76 269.09L452.22 270.6L452.68 272.11L453.11 273.63L453.52 275.15L453.92 276.68L454.3 278.21L454.66 279.75L455 281.29L455.32 282.84L455.63 284.39L455.91 285.94L456.18 287.5L456.43 289.06L456.66 290.63L456.87 292.2L457.07 293.78L457.24 295.36L457.4 296.95L457.54 298.54L457.66 300.13L457.76 301.72L457.84 303.33L457.91 304.93L457.96 306.54L457.98 308.15L457.99 309.77L457.97 311.97L457.92 314.18L457.83 316.37L457.71 318.56L457.56 320.74L457.36 322.92L457.14 325.09L456.88 327.25L456.58 329.4L456.25 331.55L455.89 333.68L455.49 335.81L455.06 337.93L454.59 340.04L454.09 342.14L453.56 344.23L453 346.31L452.4 348.38L451.76 350.44L451.1 352.49L450.4 354.53L449.66 356.55L448.9 358.56L448.1 360.57L447.26 362.55L446.4 364.53L445.5 366.49L444.57 368.44L443.61 370.38L442.62 372.3L441.59 374.21L440.53 376.11L439.44 377.99L438.32 379.85L437.16 381.7L435.97 383.53L434.76 385.35L433.51 387.15L432.22 388.94L430.91 390.71L430.53 391.22L430.15 391.75L429.79 392.28L429.43 392.81L429.08 393.36L428.74 393.91L428.41 394.46L428.09 395.02L427.78 395.59L427.48 396.16L427.19 396.73L426.9 397.32L426.63 397.9L426.36 398.49L426.1 399.09L425.86 399.69L425.62 400.29L425.39 400.9L425.18 401.52L424.97 402.13L424.77 402.75L424.58 403.38L424.4 404.01L424.23 404.64L424.07 405.27L423.92 405.91L423.78 406.55L423.65 407.19L423.53 407.84L423.42 408.48L423.32 409.13L423.24 409.79L423.16 410.44L423.09 411.1L423.03 411.75L422.98 412.41L422.95 413.07L422.92 413.74L422.9 414.4L422.9 415.06L422.9 415.81L422.89 416.76L422.85 417.7L422.8 418.63L422.73 419.56L422.63 420.49L422.52 421.4L422.38 422.31L422.23 423.22L422.05 424.12L421.86 425.01L421.64 425.89L421.41 426.76L421.16 427.63L420.89 428.49L420.6 429.34L420.29 430.18L419.97 431.02L419.62 431.84L419.26 432.66L418.89 433.47L418.49 434.26L418.08 435.05L417.65 435.83L417.21 436.6L416.75 437.35L416.28 438.1L415.79 438.83L415.28 439.56L414.76 440.27L414.22 440.97L413.67 441.66L413.11 442.33L412.53 443L411.93 443.65L411.33 444.29L410.71 444.91L410.07 445.52L409.43 446.12L408.77 446.7L408.1 447.27L408.73 447.58L409.35 447.91L409.96 448.25L410.56 448.6L411.15 448.98L411.73 449.37L412.3 449.77L412.85 450.19L413.39 450.63L413.92 451.08L414.44 451.54L414.95 452.02L415.44 452.51L415.91 453.02L416.38 453.54L416.83 454.07L417.26 454.61L417.68 455.17L418.08 455.73L418.47 456.31L418.84 456.9L419.2 457.5L419.54 458.12L419.86 458.74L420.17 459.37L420.45 460.01L420.72 460.67L420.98 461.33L421.21 462L421.42 462.67L421.62 463.36L421.8 464.05L421.95 464.75L422.09 465.46L422.21 466.18L422.3 466.9L422.38 467.63L422.43 468.36L422.47 469.1L422.48 469.85L422.46 470.71L422.42 471.55L422.35 472.4L422.25 473.23L422.12 474.05L421.97 474.87L421.79 475.68L421.58 476.47L421.35 477.26L421.1 478.03L420.82 478.8L420.51 479.55L420.19 480.29L419.83 481.01L419.46 481.73L419.06 482.43L418.65 483.11L418.21 483.78L417.75 484.44L417.27 485.08L416.77 485.7L416.25 486.31L415.71 486.9L415.16 487.47L414.58 488.03L413.99 488.56L413.39 489.08L412.76 489.58L412.12 490.06L411.46 490.52L410.79 490.95L410.11 491.37L409.41 491.76L408.69 492.14L407.96 492.49L407.22 492.81L406.47 493.12L405.71 493.4L404.93 493.65L404.15 493.88L404.35 494.18L404.55 494.49L404.74 494.8L404.93 495.11L405.12 495.42L405.3 495.74L405.48 496.06L405.65 496.38L405.81 496.7L405.98 497.03L406.13 497.36L406.29 497.69L406.44 498.03L406.58 498.37L406.72 498.71L406.85 499.05L406.98 499.4L407.1 499.74L407.22 500.09L407.34 500.45L407.45 500.8L407.55 501.16L407.65 501.52L407.74 501.88L407.83 502.24L407.91 502.61L407.99 502.97L408.06 503.34L408.13 503.71L408.19 504.09L408.24 504.46L408.29 504.84L408.33 505.22L408.37 505.6L408.4 505.98L408.43 506.36L408.45 506.74L408.47 507.13L408.48 507.52L408.48 507.91L408.46 508.93L408.4 509.95L408.29 510.95L408.15 511.95L407.97 512.92L407.75 513.89L407.5 514.84L407.21 515.78L406.88 516.7L406.52 517.6L406.12 518.49L405.69 519.35L405.23 520.2L404.74 521.03L404.22 521.83L403.66 522.62L403.08 523.38L402.47 524.12L401.83 524.83L401.17 525.52L400.48 526.19L399.77 526.82L399.03 527.43L398.27 528.02L397.48 528.57L396.67 529.09L395.85 529.58L395 530.04L394.13 530.47L393.25 530.87L392.34 531.23L391.43 531.56L390.49 531.85L389.54 532.11L388.57 532.32L387.59 532.5L386.6 532.65L385.6 532.75L384.58 532.81L383.56 532.83L366.83 532.83L366.58 534.43L366.28 536.01L365.92 537.57L365.5 539.11L365.04 540.63L364.52 542.12L363.94 543.59L363.32 545.03L362.65 546.44L361.93 547.83L361.16 549.19L360.35 550.51L359.49 551.81L358.59 553.07L357.64 554.3L356.65 555.49L355.63 556.65L354.56 557.78L353.45 558.86L352.31 559.9L351.13 560.91L349.91 561.87L348.67 562.79L347.38 563.67L346.07 564.5L344.72 565.29L343.35 566.03L341.95 566.72L340.52 567.36L339.06 567.96L337.58 568.5L336.07 568.99L334.54 569.42L332.99 569.81L331.42 570.13L329.83 570.4L328.22 570.61L326.59 570.76L324.94 570.86L323.28 570.89L321.62 570.86L319.98 570.76L318.35 570.61L316.74 570.4L315.14 570.13L313.57 569.81L312.02 569.42L310.49 568.99L308.99 568.5L307.5 567.96L306.05 567.37L304.62 566.72L303.21 566.03L301.84 565.29L300.49 564.5L299.18 563.67L297.9 562.79L296.65 561.87L295.43 560.91L294.25 559.91L293.11 558.86L292 557.78L290.94 556.66L289.91 555.5L288.92 554.3L287.98 553.07L287.07 551.81L286.21 550.51L285.4 549.19L284.63 547.83L283.91 546.44L283.24 545.03L282.62 543.59L282.05 542.12L281.52 540.63L281.06 539.11L280.64 537.57L280.28 536.01L279.98 534.43L279.74 532.83L263 532.83L261.98 532.81L260.96 532.75L259.96 532.65L258.97 532.5L257.99 532.32L257.02 532.11L256.07 531.85L255.14 531.56L254.22 531.23L253.31 530.87L252.43 530.47L251.56 530.04L250.71 529.58L249.89 529.09L249.08 528.57L248.29 528.02L247.53 527.43L246.79 526.82L246.08 526.19L245.39 525.52L244.73 524.83L244.09 524.12L243.48 523.38L242.9 522.62L242.34 521.83L241.82 521.03L241.33 520.2L240.87 519.35L240.44 518.49L240.04 517.6L239.68 516.7L239.35 515.78L239.06 514.84L238.81 513.89L238.59 512.92L238.41 511.95L238.27 510.95L238.16 509.95L238.1 508.93L238.08 507.91L238.08 507.52L238.09 507.13L238.11 506.74L238.13 506.36L238.16 505.98L238.19 505.6L238.23 505.22L238.27 504.84L238.32 504.46L238.37 504.09L238.44 503.71L238.5 503.34L238.57 502.97L238.65 502.61L238.73 502.24L238.82 501.88L238.91 501.52L239.01 501.16L239.11 500.8L239.22 500.45L239.34 500.09L239.46 499.74L239.58 499.4L239.71 499.05L239.84 498.71L239.98 498.37L240.13 498.03L240.27 497.69L240.43 497.36L240.59 497.03L240.75 496.7L240.92 496.38L241.09 496.06L241.26 495.74L241.44 495.42L241.63 495.11L241.82 494.8L242.01 494.49L242.21 494.18L242.42 493.88L241.63 493.65L240.85 493.4L240.09 493.12L239.34 492.81L238.6 492.49L237.87 492.14L237.16 491.76L236.46 491.37L235.77 490.95L235.1 490.52L234.44 490.06L233.8 489.58L233.18 489.08L232.57 488.56L231.98 488.03L231.4 487.47L230.85 486.9L230.31 486.31L229.79 485.7L229.29 485.08L228.81 484.44L228.35 483.78L227.91 483.11L227.5 482.43L227.1 481.73L226.73 481.01L226.38 480.29L226.05 479.55L225.74 478.8L225.46 478.03L225.21 477.26L224.98 476.47L224.77 475.68L224.59 474.87L224.44 474.05L224.31 473.23L224.21 472.4L224.14 471.55L224.1 470.71L224.08 469.85L224.09 469.1L224.13 468.35L224.18 467.61L224.26 466.87L224.36 466.14L224.48 465.42L224.62 464.7L224.78 463.99L224.96 463.29L225.16 462.6L225.38 461.92L225.62 461.24L225.87 460.58L226.15 459.92L226.44 459.27L226.75 458.63L227.08 458.01L227.43 457.39L227.79 456.78L228.17 456.19L228.57 455.61L228.98 455.04L229.41 454.48L229.85 453.93L230.31 453.4L230.78 452.88L231.26 452.37L231.76 451.88L232.28 451.4L232.81 450.93L233.35 450.48L233.9 450.05L234.46 449.63L235.04 449.23L235.63 448.84L236.23 448.47L236.84 448.11L237.46 447.77L238.09 447.45L238.74 447.15L238.07 446.58L237.42 446L236.78 445.4L236.15 444.79L235.54 444.16L234.94 443.53L234.35 442.88L233.78 442.21L233.22 441.54L232.67 440.85L232.14 440.16L231.62 439.45L231.12 438.72L230.64 437.99L230.17 437.25L229.71 436.5L229.27 435.73L228.85 434.96L228.44 434.17L228.05 433.38L227.68 432.58L227.32 431.76L226.98 430.94L226.66 430.11L226.36 429.27L226.07 428.42L225.81 427.57L225.56 426.71L225.33 425.83L225.11 424.96L224.92 424.07L224.75 423.18L224.59 422.28L224.46 421.37L224.35 420.46L224.25 419.54L224.18 418.62L224.12 417.69L224.09 416.75L224.08 415.81L224.08 415.05L224.08 414.38L224.06 413.72L224.03 413.05L224 412.39L223.95 411.73L223.89 411.07L223.82 410.41L223.74 409.75L223.64 409.1L223.54 408.44L223.43 407.79L223.31 407.14L223.17 406.5L223.03 405.85L222.87 405.21L222.71 404.57L222.53 403.93L222.34 403.3L222.15 402.67L221.94 402.04L221.72 401.41L221.49 400.79L221.26 400.17L221.01 399.55L220.75 398.94L220.48 398.32L220.2 397.72L219.91 397.11L219.61 396.51L219.3 395.92L218.99 395.32L218.66 394.74L218.32 394.15L217.97 393.57L217.61 392.99L217.24 392.42L216.86 391.85L216.47 391.29L216.08 390.73L215.67 390.17L214.39 388.44L213.15 386.69L211.94 384.93L210.75 383.15L209.6 381.35L208.48 379.54L207.39 377.72L206.32 375.88L205.29 374.02L204.29 372.16L203.32 370.27L202.38 368.38L201.47 366.47L200.6 364.55L199.75 362.62L198.94 360.68L198.15 358.72L197.4 356.75L196.68 354.77L195.99 352.78L195.33 350.78L194.71 348.77L194.12 346.74L193.55 344.71L193.02 342.67L192.53 340.62L192.06 338.56L191.63 336.49L191.23 334.41L190.86 332.32L190.53 330.23L190.22 328.13L189.95 326.02L189.72 323.9L189.51 321.78L189.34 319.65L189.21 317.51L189.1 315.37L189.03 313.22L188.99 311.06L188.99 308.37L189.05 305.68L189.16 303L189.31 300.33L189.53 297.67L189.79 295.02L190.1 292.38L190.47 289.75L190.89 287.13L191.36 284.53L191.88 281.94L192.45 279.37L193.07 276.8L193.74 274.26L194.46 271.73L195.23 269.21L196.05 266.72L196.91 264.24L197.83 261.77L198.8 259.33L199.81 256.91L200.87 254.5L201.98 252.12L203.14 249.76L204.35 247.42L205.6 245.1L206.9 242.8L208.24 240.53L209.64 238.28L211.08 236.05L212.56 233.86L214.09 231.68L215.67 229.53L217.29 227.41L218.96 225.32L220.67 223.26L222.42 221.22L224.22 219.21L226.07 217.23L227.96 215.29L229.88 213.38L231.84 211.51L233.82 209.69L235.84 207.91L237.88 206.18L239.96 204.49L242.06 202.85L244.19 201.25L246.34 199.69L248.52 198.18L250.73 196.72L252.96 195.3L255.22 193.93L257.5 192.61L259.8 191.33L262.13 190.1L264.48 188.91L266.85 187.78L269.24 186.69L271.65 185.64L274.08 184.65L276.53 183.71L279 182.81L281.48 181.96L283.99 181.17L286.51 180.42L289.05 179.72L291.6 179.07L294.17 178.47L296.75 177.92L299.34 177.42L301.95 176.98L304.58 176.58L307.21 176.24L309.86 175.94L312.51 175.7L315.18 175.51L317.86 175.38L320.54 175.29L323.24 175.26L324.84 175.27L326.44 175.29ZM291.98 534.31L292.36 535.77L292.81 537.19L293.31 538.59L293.88 539.96L294.51 541.29L295.2 542.6L295.95 543.86L296.75 545.09L297.61 546.28L298.51 547.42L299.47 548.53L300.47 549.58L301.53 550.6L302.62 551.56L303.76 552.48L304.94 553.34L306.16 554.15L307.42 554.91L308.72 555.61L310.04 556.25L311.41 556.83L312.8 557.35L314.22 557.8L315.67 558.19L317.15 558.51L318.65 558.77L320.17 558.95L321.72 559.06L323.28 559.1L324.84 559.06L326.39 558.95L327.91 558.77L329.41 558.51L330.89 558.19L332.34 557.8L333.76 557.35L335.16 556.83L336.52 556.25L337.85 555.61L339.14 554.91L340.4 554.15L341.62 553.34L342.8 552.48L343.94 551.56L345.04 550.6L346.09 549.58L347.09 548.53L348.05 547.42L348.96 546.28L349.81 545.09L350.61 543.86L351.36 542.6L352.05 541.29L352.68 539.96L353.25 538.59L353.76 537.19L354.2 535.77L354.58 534.31L354.89 532.83L291.67 532.83L291.98 534.31ZM248.46 456.73L247.93 456.76L247.4 456.81L246.88 456.89L246.36 456.98L245.85 457.1L245.35 457.23L244.86 457.39L244.37 457.56L243.9 457.75L243.43 457.96L242.98 458.18L242.53 458.43L242.09 458.69L241.67 458.96L241.25 459.25L240.85 459.56L240.46 459.88L240.09 460.22L239.72 460.57L239.37 460.93L239.04 461.31L238.72 461.7L238.41 462.1L238.12 462.51L237.84 462.94L237.58 463.37L237.34 463.82L237.11 464.27L236.91 464.74L236.72 465.22L236.54 465.7L236.39 466.19L236.25 466.7L236.14 467.21L236.04 467.72L235.97 468.24L235.92 468.77L235.88 469.31L235.87 469.85L235.88 470.39L235.92 470.92L235.97 471.45L236.04 471.98L236.14 472.49L236.25 473L236.39 473.5L236.54 474L236.72 474.48L236.91 474.96L237.11 475.42L237.34 475.88L237.58 476.33L237.84 476.76L238.12 477.19L238.41 477.6L238.72 478L239.04 478.39L239.37 478.77L239.72 479.13L240.09 479.48L240.46 479.82L240.85 480.14L241.25 480.45L241.67 480.74L242.09 481.01L242.53 481.27L242.98 481.52L243.43 481.74L243.9 481.95L244.37 482.14L244.86 482.31L245.35 482.47L245.85 482.6L246.36 482.72L246.88 482.81L247.4 482.89L247.93 482.94L248.46 482.97L249.01 482.99L271.37 482.99L271.61 482.99L271.85 483L272.09 483.03L272.32 483.06L272.56 483.1L272.78 483.16L273.01 483.22L273.23 483.29L273.45 483.36L273.66 483.45L273.87 483.54L274.08 483.64L274.28 483.75L274.47 483.87L274.66 483.99L274.85 484.12L275.03 484.26L275.2 484.4L275.37 484.55L275.53 484.71L275.69 484.87L275.84 485.04L275.99 485.22L276.12 485.4L276.25 485.58L276.38 485.77L276.49 485.97L276.6 486.17L276.7 486.37L276.8 486.58L276.88 486.8L276.96 487.01L277.03 487.24L277.09 487.46L277.14 487.69L277.18 487.92L277.22 488.16L277.24 488.39L277.26 488.63L277.26 488.88L277.26 489.12L277.24 489.36L277.22 489.6L277.18 489.83L277.14 490.07L277.09 490.29L277.03 490.52L276.96 490.74L276.88 490.96L276.8 491.17L276.7 491.38L276.6 491.59L276.49 491.79L276.38 491.98L276.25 492.17L276.12 492.36L275.99 492.54L275.84 492.71L275.69 492.88L275.53 493.05L275.37 493.2L275.2 493.35L275.03 493.5L274.85 493.63L274.66 493.77L274.47 493.89L274.28 494.01L274.08 494.11L273.87 494.22L273.66 494.31L273.45 494.39L273.23 494.47L273.01 494.54L272.78 494.6L272.56 494.65L272.32 494.69L272.09 494.73L271.85 494.75L271.61 494.77L271.37 494.77L263 494.77L262.46 494.78L261.93 494.82L261.4 494.87L260.88 494.94L260.36 495.04L259.85 495.15L259.35 495.29L258.86 495.44L258.37 495.62L257.9 495.81L257.43 496.01L256.97 496.24L256.53 496.48L256.09 496.74L255.67 497.02L255.25 497.31L254.85 497.62L254.46 497.94L254.09 498.27L253.72 498.62L253.37 498.99L253.04 499.36L252.72 499.75L252.41 500.15L252.12 500.57L251.84 500.99L251.58 501.43L251.34 501.88L251.11 502.33L250.91 502.8L250.71 503.28L250.54 503.76L250.39 504.25L250.25 504.75L250.14 505.26L250.04 505.78L249.97 506.3L249.92 506.83L249.88 507.37L249.87 507.91L249.88 508.45L249.92 508.98L249.97 509.51L250.04 510.04L250.14 510.55L250.25 511.06L250.39 511.56L250.54 512.05L250.71 512.54L250.91 513.01L251.11 513.48L251.34 513.94L251.58 514.38L251.84 514.82L252.12 515.25L252.41 515.66L252.72 516.06L253.04 516.45L253.37 516.83L253.72 517.19L254.09 517.54L254.46 517.88L254.85 518.2L255.25 518.5L255.67 518.79L256.09 519.07L256.53 519.33L256.97 519.57L257.43 519.8L257.9 520.01L258.37 520.2L258.86 520.37L259.35 520.52L259.85 520.66L260.36 520.77L260.88 520.87L261.4 520.94L261.93 521L262.46 521.03L263 521.04L383.56 521.04L384.1 521.03L384.63 521L385.16 520.94L385.68 520.87L386.2 520.77L386.71 520.66L387.21 520.52L387.7 520.37L388.19 520.2L388.66 520.01L389.13 519.8L389.59 519.57L390.03 519.33L390.47 519.07L390.9 518.79L391.31 518.5L391.71 518.2L392.1 517.88L392.48 517.54L392.84 517.19L393.19 516.83L393.53 516.45L393.85 516.06L394.15 515.66L394.45 515.25L394.72 514.82L394.98 514.38L395.22 513.94L395.45 513.48L395.66 513.01L395.85 512.54L396.02 512.05L396.18 511.56L396.31 511.06L396.42 510.55L396.52 510.04L396.59 509.51L396.65 508.98L396.68 508.45L396.69 507.91L396.68 507.37L396.65 506.83L396.59 506.3L396.52 505.78L396.42 505.26L396.31 504.75L396.18 504.25L396.02 503.76L395.85 503.28L395.66 502.8L395.45 502.33L395.22 501.88L394.98 501.43L394.72 500.99L394.45 500.57L394.15 500.15L393.85 499.75L393.53 499.36L393.19 498.99L392.84 498.62L392.48 498.27L392.1 497.94L391.71 497.62L391.31 497.31L390.9 497.02L390.47 496.74L390.03 496.48L389.59 496.24L389.13 496.01L388.66 495.81L388.19 495.62L387.7 495.44L387.21 495.29L386.71 495.15L386.2 495.04L385.68 494.94L385.16 494.87L384.63 494.82L384.1 494.78L383.56 494.77L294.95 494.77L294.7 494.77L294.46 494.75L294.22 494.73L293.99 494.69L293.76 494.65L293.53 494.6L293.3 494.54L293.08 494.47L292.87 494.39L292.65 494.31L292.44 494.22L292.24 494.11L292.04 494.01L291.84 493.89L291.65 493.77L291.46 493.63L291.28 493.5L291.11 493.35L290.94 493.2L290.78 493.05L290.62 492.88L290.47 492.71L290.33 492.54L290.19 492.36L290.06 492.17L289.93 491.98L289.82 491.79L289.71 491.59L289.61 491.38L289.51 491.17L289.43 490.96L289.35 490.74L289.28 490.52L289.22 490.29L289.17 490.07L289.13 489.83L289.09 489.6L289.07 489.36L289.06 489.12L289.05 488.88L289.06 488.63L289.07 488.39L289.09 488.16L289.13 487.92L289.17 487.69L289.22 487.46L289.28 487.24L289.35 487.01L289.43 486.8L289.51 486.58L289.61 486.37L289.71 486.17L289.82 485.97L289.93 485.77L290.06 485.58L290.19 485.4L290.33 485.22L290.47 485.04L290.62 484.87L290.78 484.71L290.94 484.55L291.11 484.4L291.28 484.26L291.46 484.12L291.65 483.99L291.84 483.87L292.04 483.75L292.24 483.64L292.44 483.54L292.65 483.45L292.87 483.36L293.08 483.29L293.3 483.22L293.53 483.16L293.76 483.1L293.99 483.06L294.22 483.03L294.46 483L294.7 482.99L294.95 482.99L397.56 482.99L398.1 482.97L398.63 482.94L399.16 482.89L399.68 482.81L400.2 482.72L400.71 482.6L401.21 482.47L401.7 482.31L402.19 482.14L402.66 481.95L403.13 481.74L403.59 481.52L404.03 481.27L404.47 481.01L404.9 480.74L405.31 480.45L405.71 480.14L406.1 479.82L406.48 479.48L406.84 479.13L407.19 478.77L407.53 478.39L407.85 478L408.15 477.6L408.45 477.19L408.72 476.76L408.98 476.33L409.22 475.88L409.45 475.42L409.66 474.96L409.85 474.48L410.02 474L410.17 473.5L410.31 473L410.42 472.49L410.52 471.98L410.59 471.45L410.65 470.93L410.68 470.39L410.69 469.85L410.68 469.31L410.65 468.77L410.59 468.24L410.52 467.72L410.42 467.21L410.31 466.7L410.17 466.2L410.02 465.7L409.85 465.22L409.66 464.74L409.45 464.28L409.22 463.82L408.98 463.37L408.72 462.94L408.45 462.51L408.15 462.1L407.85 461.7L407.53 461.31L407.19 460.93L406.84 460.57L406.48 460.22L406.1 459.88L405.71 459.56L405.31 459.25L404.9 458.96L404.47 458.69L404.03 458.43L403.59 458.18L403.13 457.96L402.66 457.75L402.19 457.56L401.7 457.39L401.21 457.23L400.71 457.1L400.2 456.98L399.68 456.89L399.16 456.81L398.63 456.76L398.1 456.73L397.56 456.72L249.01 456.72L248.46 456.73ZM449.58 404.7L450.2 404.82L450.81 405L451.41 405.22L452 405.49L452.57 405.81L453.12 406.17L453.65 406.58L473.36 423.12L473.86 423.57L474.31 424.05L474.72 424.55L475.09 425.09L475.41 425.64L475.69 426.21L475.92 426.8L476.11 427.4L476.26 428.01L476.36 428.63L476.41 429.25L476.42 429.88L476.38 430.51L476.3 431.13L476.17 431.75L476 432.36L475.78 432.96L475.51 433.55L475.19 434.12L474.83 434.67L474.42 435.2L473.97 435.69L473.49 436.14L472.99 436.55L472.46 436.91L471.9 437.23L471.33 437.51L470.74 437.74L470.14 437.93L469.53 438.07L468.91 438.17L468.28 438.23L467.65 438.24L467.02 438.2L466.39 438.12L465.77 437.99L465.16 437.82L464.56 437.6L463.98 437.34L463.41 437.02L462.86 436.66L462.34 436.26L442.63 419.72L442.13 419.27L441.68 418.79L441.27 418.28L440.9 417.75L440.58 417.2L440.3 416.63L440.06 416.04L439.87 415.44L439.73 414.83L439.63 414.21L439.58 413.58L439.57 412.96L439.6 412.33L439.69 411.71L439.81 411.09L439.99 410.48L440.21 409.88L440.48 409.29L440.8 408.72L441.16 408.17L441.57 407.64L442.02 407.14L442.5 406.69L443.01 406.28L443.54 405.91L444.09 405.59L444.66 405.31L445.25 405.07L445.85 404.88L446.46 404.74L447.08 404.64L447.7 404.59L448.33 404.58L448.96 404.61L449.58 404.7ZM198.25 404.64L198.87 404.74L199.49 404.88L200.09 405.07L200.67 405.31L201.24 405.59L201.8 405.91L202.33 406.28L202.83 406.69L203.31 407.14L203.76 407.64L204.18 408.17L204.54 408.72L204.86 409.29L205.12 409.88L205.35 410.48L205.52 411.09L205.65 411.71L205.73 412.33L205.77 412.96L205.76 413.58L205.71 414.21L205.61 414.83L205.46 415.44L205.27 416.04L205.04 416.63L204.76 417.2L204.44 417.75L204.07 418.28L203.66 418.79L203.2 419.27L202.71 419.72L183 436.26L182.47 436.67L181.92 437.03L181.34 437.34L180.75 437.6L180.14 437.81L179.52 437.98L178.9 438.1L178.27 438.17L177.63 438.2L177 438.18L176.37 438.12L175.74 438.02L175.13 437.87L174.53 437.68L173.94 437.44L173.37 437.17L172.83 436.85L172.31 436.5L171.81 436.1L171.35 435.67L170.92 435.2L170.51 434.67L170.14 434.12L169.83 433.55L169.56 432.96L169.34 432.36L169.16 431.75L169.03 431.13L168.95 430.51L168.91 429.88L168.92 429.25L168.98 428.63L169.08 428.01L169.22 427.4L169.41 426.8L169.65 426.21L169.93 425.64L170.25 425.09L170.62 424.55L171.03 424.05L171.48 423.57L171.98 423.12L191.68 406.58L192.21 406.17L192.76 405.81L193.33 405.49L193.92 405.22L194.52 405L195.13 404.82L195.75 404.7L196.38 404.61L197 404.58L197.63 404.59L198.25 404.64ZM170.29 356.54L170.9 356.68L171.5 356.86L172.09 357.08L172.66 357.34L173.21 357.65L173.73 357.99L174.23 358.38L174.7 358.8L175.14 359.26L175.55 359.75L175.93 360.27L176.26 360.83L176.56 361.42L176.81 362.04L177.02 362.68L177.17 363.33L177.27 363.97L177.32 364.61L177.33 365.25L177.28 365.89L177.19 366.51L177.06 367.13L176.88 367.73L176.65 368.32L176.39 368.88L176.08 369.43L175.74 369.96L175.35 370.46L174.93 370.93L174.47 371.37L173.98 371.78L173.46 372.15L172.9 372.49L172.31 372.78L171.69 373.04L147.51 381.84L147.37 381.88L147.23 381.93L147.09 381.97L146.96 382.02L146.82 382.06L146.68 382.09L146.54 382.13L146.4 382.16L146.26 382.19L146.12 382.21L145.98 382.24L145.84 382.26L145.7 382.28L145.56 382.3L145.42 382.31L145.28 382.33L145.14 382.34L145 382.34L144.86 382.35L144.72 382.35L144.58 382.35L144.08 382.34L143.59 382.3L143.1 382.22L142.61 382.13L142.14 382L141.67 381.84L141.22 381.66L140.77 381.46L140.34 381.23L139.92 380.97L139.51 380.7L139.12 380.39L138.75 380.07L138.39 379.72L138.06 379.35L137.75 378.96L137.45 378.55L137.18 378.12L136.94 377.67L136.72 377.2L136.52 376.71L136.32 376.07L136.16 375.43L136.06 374.78L136.01 374.14L136.01 373.5L136.05 372.87L136.14 372.24L136.28 371.63L136.46 371.02L136.68 370.44L136.94 369.87L137.25 369.32L137.6 368.8L137.98 368.3L138.4 367.83L138.86 367.39L139.35 366.98L139.88 366.6L140.43 366.27L141.03 365.97L141.65 365.72L165.82 356.92L166.46 356.71L167.1 356.56L167.75 356.46L168.39 356.41L169.03 356.4L169.66 356.45L170.29 356.54ZM477.59 355.37L478.23 355.47L478.88 355.62L479.51 355.83L503.69 364.63L504.31 364.88L504.9 365.18L505.46 365.51L505.99 365.89L506.48 366.29L506.94 366.74L507.36 367.21L507.74 367.71L508.09 368.23L508.39 368.78L508.66 369.35L508.88 369.93L509.06 370.54L509.2 371.15L509.29 371.78L509.33 372.41L509.33 373.05L509.27 373.69L509.17 374.34L509.02 374.98L508.81 375.62L508.62 376.11L508.4 376.58L508.15 377.03L507.88 377.46L507.59 377.87L507.28 378.26L506.94 378.63L506.59 378.98L506.21 379.3L505.83 379.6L505.42 379.88L505 380.14L504.57 380.37L504.12 380.57L503.66 380.75L503.2 380.91L502.72 381.03L502.24 381.13L501.75 381.2L501.26 381.25L500.76 381.26L500.62 381.26L500.48 381.26L500.34 381.25L500.2 381.24L500.06 381.23L499.92 381.22L499.78 381.21L499.64 381.19L499.5 381.17L499.36 381.15L499.22 381.12L499.08 381.1L498.94 381.07L498.8 381.03L498.66 381L498.52 380.96L498.38 380.92L498.24 380.88L498.1 380.84L497.96 380.79L497.82 380.74L473.65 371.94L473.03 371.69L472.44 371.39L471.88 371.06L471.35 370.68L470.86 370.28L470.4 369.83L469.98 369.36L469.6 368.86L469.25 368.34L468.95 367.79L468.68 367.22L468.46 366.64L468.28 366.04L468.14 365.42L468.05 364.79L468.01 364.16L468.01 363.52L468.06 362.88L468.17 362.23L468.32 361.59L468.52 360.95L468.78 360.33L469.07 359.74L469.41 359.18L469.78 358.66L470.19 358.16L470.63 357.71L471.1 357.29L471.6 356.9L472.13 356.56L472.68 356.25L473.24 355.99L473.83 355.76L474.43 355.58L475.05 355.45L475.67 355.36L476.31 355.31L476.95 355.31L477.59 355.37ZM513.51 299.39L514.15 299.52L514.77 299.69L515.38 299.9L515.96 300.16L516.51 300.46L517.05 300.8L517.55 301.17L518.02 301.58L518.47 302.03L518.88 302.5L519.25 303.01L519.59 303.54L519.89 304.09L520.15 304.68L520.36 305.28L520.53 305.9L520.66 306.54L520.74 307.2L520.76 307.87L520.74 308.54L520.66 309.19L520.53 309.83L520.36 310.45L520.15 311.06L519.89 311.64L519.59 312.19L519.25 312.73L518.88 313.23L518.47 313.7L518.02 314.15L517.55 314.56L517.05 314.93L516.51 315.27L515.96 315.57L515.38 315.83L514.77 316.04L514.15 316.21L513.51 316.34L512.86 316.42L512.19 316.44L486.46 316.44L485.79 316.42L485.13 316.34L484.49 316.21L483.87 316.04L483.27 315.83L482.69 315.57L482.13 315.27L481.6 314.93L481.1 314.56L480.62 314.15L480.18 313.7L479.77 313.23L479.39 312.73L479.05 312.19L478.76 311.64L478.5 311.06L478.28 310.45L478.11 309.83L477.99 309.19L477.91 308.54L477.88 307.87L477.91 307.2L477.99 306.54L478.11 305.9L478.28 305.28L478.5 304.68L478.76 304.09L479.05 303.54L479.39 303.01L479.77 302.5L480.18 302.03L480.62 301.58L481.1 301.17L481.6 300.8L482.13 300.46L482.69 300.16L483.27 299.9L483.87 299.69L484.49 299.52L485.13 299.39L485.79 299.32L486.46 299.29L512.19 299.29L512.86 299.32L513.51 299.39ZM160.2 299.39L160.84 299.52L161.46 299.69L162.07 299.9L162.65 300.16L163.2 300.46L163.73 300.8L164.24 301.17L164.71 301.58L165.16 302.03L165.57 302.5L165.94 303.01L166.28 303.54L166.58 304.09L166.84 304.68L167.05 305.28L167.22 305.9L167.35 306.54L167.43 307.2L167.45 307.87L167.43 308.54L167.35 309.19L167.22 309.83L167.05 310.45L166.84 311.06L166.58 311.64L166.28 312.19L165.94 312.73L165.57 313.23L165.16 313.7L164.71 314.15L164.24 314.56L163.73 314.93L163.2 315.27L162.65 315.57L162.07 315.83L161.46 316.04L160.84 316.21L160.2 316.34L159.55 316.42L158.88 316.44L133.15 316.44L132.48 316.42L131.82 316.34L131.18 316.21L130.56 316.04L129.96 315.83L129.38 315.57L128.82 315.27L128.29 314.93L127.79 314.56L127.31 314.15L126.87 313.7L126.46 313.23L126.08 312.73L125.74 312.19L125.45 311.64L125.19 311.06L124.97 310.45L124.8 309.83L124.68 309.19L124.6 308.54L124.57 307.87L124.6 307.2L124.68 306.54L124.8 305.9L124.97 305.28L125.19 304.68L125.45 304.09L125.74 303.54L126.08 303.01L126.46 302.5L126.87 302.03L127.31 301.58L127.79 301.17L128.29 300.8L128.82 300.46L129.38 300.16L129.96 299.9L130.56 299.69L131.18 299.52L131.82 299.39L132.48 299.32L133.15 299.29L158.88 299.29L159.55 299.32L160.2 299.39ZM145.59 234.53L146.23 234.63L146.87 234.78L147.51 234.99L171.68 243.79L172.31 244.04L172.9 244.34L173.46 244.67L173.98 245.05L174.47 245.46L174.93 245.9L175.35 246.37L175.74 246.87L176.08 247.39L176.39 247.94L176.65 248.51L176.87 249.09L177.05 249.7L177.19 250.31L177.28 250.94L177.33 251.57L177.32 252.21L177.27 252.85L177.17 253.5L177.02 254.14L176.81 254.78L176.62 255.27L176.39 255.74L176.15 256.19L175.88 256.62L175.59 257.03L175.27 257.42L174.94 257.79L174.58 258.14L174.21 258.46L173.82 258.77L173.42 259.04L173 259.3L172.56 259.53L172.12 259.73L171.66 259.91L171.19 260.07L170.72 260.2L170.23 260.29L169.75 260.37L169.25 260.41L168.75 260.42L168.61 260.42L168.47 260.42L168.33 260.41L168.19 260.41L168.05 260.4L167.91 260.38L167.77 260.37L167.63 260.35L167.49 260.33L167.35 260.31L167.21 260.28L167.07 260.26L166.93 260.23L166.79 260.2L166.65 260.16L166.51 260.13L166.38 260.09L166.24 260.04L166.1 260L165.96 259.95L165.82 259.9L141.65 251.11L141.02 250.85L140.43 250.56L139.88 250.22L139.35 249.85L138.86 249.44L138.4 249L137.98 248.52L137.59 248.03L137.25 247.5L136.94 246.95L136.68 246.38L136.46 245.8L136.28 245.2L136.14 244.58L136.05 243.96L136 243.32L136.01 242.68L136.06 242.04L136.16 241.4L136.31 240.75L136.52 240.11L136.77 239.49L137.07 238.9L137.4 238.34L137.78 237.82L138.19 237.33L138.63 236.87L139.1 236.45L139.6 236.06L140.12 235.72L140.67 235.41L141.24 235.15L141.83 234.92L142.43 234.74L143.04 234.61L143.67 234.52L144.3 234.47L144.94 234.48L145.59 234.53ZM502.29 234.61L502.91 234.74L503.51 234.92L504.09 235.15L504.66 235.41L505.21 235.72L505.73 236.06L506.23 236.45L506.7 236.87L507.15 237.33L507.56 237.82L507.93 238.34L508.26 238.9L508.56 239.49L508.81 240.11L509.02 240.75L509.17 241.4L509.27 242.04L509.33 242.68L509.33 243.32L509.28 243.96L509.19 244.58L509.06 245.2L508.88 245.8L508.66 246.39L508.39 246.95L508.08 247.5L507.74 248.03L507.36 248.53L506.93 249L506.48 249.44L505.98 249.85L505.46 250.22L504.9 250.56L504.31 250.85L503.69 251.11L479.51 259.9L479.38 259.95L479.24 260L479.1 260.04L478.96 260.09L478.82 260.13L478.68 260.16L478.54 260.2L478.4 260.23L478.26 260.26L478.12 260.28L477.98 260.31L477.84 260.33L477.7 260.35L477.56 260.37L477.42 260.38L477.28 260.4L477.14 260.41L477 260.41L476.86 260.42L476.72 260.42L476.58 260.42L476.08 260.41L475.59 260.37L475.1 260.29L474.62 260.2L474.14 260.07L473.67 259.91L473.22 259.73L472.77 259.53L472.34 259.3L471.92 259.04L471.51 258.77L471.12 258.46L470.75 258.14L470.4 257.79L470.06 257.42L469.75 257.03L469.46 256.62L469.19 256.19L468.94 255.74L468.72 255.27L468.52 254.78L468.32 254.14L468.17 253.5L468.06 252.85L468.01 252.21L468.01 251.57L468.05 250.94L468.14 250.31L468.28 249.7L468.46 249.09L468.68 248.51L468.95 247.94L469.25 247.39L469.6 246.87L469.98 246.37L470.4 245.9L470.86 245.46L471.35 245.05L471.88 244.67L472.44 244.34L473.03 244.04L473.65 243.79L497.82 234.99L498.46 234.78L499.1 234.63L499.75 234.53L500.39 234.48L501.03 234.47L501.66 234.52L502.29 234.61ZM178.93 177.59L179.55 177.72L180.16 177.9L180.76 178.12L181.35 178.39L181.92 178.7L182.47 179.07L183 179.48L202.71 196.01L203.2 196.46L203.66 196.94L204.07 197.45L204.43 197.98L204.76 198.53L205.04 199.11L205.27 199.69L205.46 200.29L205.6 200.9L205.7 201.52L205.76 202.15L205.77 202.78L205.73 203.4L205.65 204.03L205.52 204.65L205.35 205.26L205.12 205.86L204.85 206.44L204.54 207.01L204.17 207.56L203.76 208.09L203.31 208.59L202.82 209.05L202.31 209.46L201.77 209.82L201.21 210.14L200.63 210.41L200.03 210.64L199.43 210.82L198.81 210.96L198.18 211.05L197.55 211.1L196.92 211.11L196.29 211.07L195.67 210.98L195.05 210.85L194.45 210.68L193.85 210.46L193.28 210.2L192.72 209.89L192.19 209.54L191.68 209.15L191.55 209.04L191.17 208.72L190.58 208.23L189.8 207.57L188.85 206.78L187.76 205.86L186.56 204.85L185.27 203.77L183.91 202.63L182.52 201.46L181.12 200.28L179.72 199.12L178.37 197.98L177.08 196.9L175.88 195.89L173.85 194.18L171.98 192.61L171.48 192.16L171.02 191.68L170.61 191.18L170.25 190.65L169.93 190.09L169.65 189.52L169.41 188.94L169.22 188.34L169.08 187.72L168.98 187.1L168.92 186.48L168.91 185.85L168.95 185.23L169.03 184.6L169.16 183.98L169.34 183.37L169.56 182.77L169.83 182.19L170.14 181.62L170.51 181.06L170.92 180.53L171.37 180.04L171.85 179.58L172.36 179.17L172.89 178.81L173.44 178.48L174.01 178.2L174.6 177.97L175.2 177.78L175.81 177.64L176.43 177.54L177.05 177.48L177.68 177.47L178.31 177.51L178.93 177.59ZM468.91 177.54L469.52 177.64L470.14 177.78L470.74 177.97L471.32 178.21L471.89 178.48L472.45 178.81L472.98 179.17L473.48 179.58L473.96 180.04L474.42 180.53L474.83 181.06L475.19 181.62L475.51 182.19L475.77 182.77L476 183.37L476.17 183.98L476.3 184.6L476.38 185.23L476.42 185.85L476.41 186.48L476.36 187.11L476.26 187.72L476.11 188.34L475.92 188.94L475.69 189.52L475.41 190.09L475.09 190.65L474.72 191.18L474.31 191.68L473.86 192.17L473.36 192.62L453.65 209.15L453.43 209.33L453.2 209.51L452.96 209.67L452.72 209.82L452.47 209.97L452.22 210.1L451.97 210.23L451.71 210.34L451.45 210.45L451.19 210.55L450.92 210.64L450.65 210.72L450.38 210.79L450.1 210.85L449.83 210.9L449.55 210.95L449.27 210.98L448.99 211.01L448.71 211.03L448.43 211.04L448.15 211.04L447.79 211.03L447.43 211L447.07 210.97L446.72 210.92L446.37 210.85L446.02 210.77L445.68 210.68L445.34 210.58L445 210.46L444.67 210.33L444.35 210.19L444.03 210.03L443.72 209.87L443.42 209.69L443.12 209.5L442.84 209.29L442.56 209.08L442.3 208.85L442.04 208.61L441.8 208.36L441.57 208.09L441.16 207.56L440.79 207.01L440.48 206.44L440.21 205.86L439.99 205.26L439.81 204.64L439.68 204.03L439.6 203.4L439.56 202.77L439.57 202.15L439.63 201.52L439.73 200.9L439.87 200.29L440.06 199.69L440.3 199.11L440.58 198.53L440.9 197.98L441.27 197.45L441.68 196.94L442.13 196.46L442.63 196.01L462.33 179.48L462.86 179.07L463.42 178.7L463.99 178.39L464.57 178.12L465.17 177.9L465.78 177.72L466.4 177.59L467.03 177.51L467.65 177.47L468.28 177.48L468.91 177.54Z" id="hSMGms0SZ"></path></defs><g><g><g><g><filter id="shadow11004428" x="27.95" y="59.41" width="590.43" height="576.14" filterUnits="userSpaceOnUse" primitiveUnits="userSpaceOnUse"><feFlood></feFlood><feComposite in2="SourceAlpha" operator="in"></feComposite><feGaussianBlur stdDeviation="1"></feGaussianBlur><feOffset dx="1" dy="1" result="afterOffset"></feOffset><feFlood flood-color="#ffffff" flood-opacity="0.5"></feFlood><feComposite in2="afterOffset" operator="in"></feComposite><feMorphology operator="dilate" radius="1"></feMorphology><feComposite in2="SourceAlpha" operator="out"></feComposite></filter><path d="M608.38 346.98C608.38 500.73 480.36 625.55 322.67 625.55C164.98 625.55 36.95 500.73 36.95 346.98C36.95 193.23 164.98 68.41 322.67 68.41C480.36 68.41 608.38 193.23 608.38 346.98Z" id="eiFCiLUJO" fill="white" fill-opacity="1" filter="url(#shadow11004428)"></path></g><use xlink:href="#a2pB02CDVI" opacity="1" fill="#ffffff" fill-opacity="0"></use><g><use xlink:href="#a2pB02CDVI" opacity="1" fill-opacity="0" stroke="#ffffff" stroke-width="30" stroke-opacity="1"></use></g></g><g><use xlink:href="#hSMGms0SZ" opacity="1" fill="#ffffff" fill-opacity="1"></use><g><use xlink:href="#hSMGms0SZ" opacity="1" fill-opacity="0" stroke="#ffffff" stroke-width="1" stroke-opacity="0"></use></g></g></g></g></svg>