<?xml version="1.0" encoding="UTF-8" standalone="no"?>
<!DOCTYPE svg PUBLIC "-//W3C//DTD SVG 1.1//EN" "http://www.w3.org/Graphics/SVG/1.1/DTD/svg11.dtd">
<svg version="1.1" xmlns="http://www.w3.org/2000/svg" xmlns:xlink="http://www.w3.org/1999/xlink" preserveAspectRatio="xMidYMid meet" viewBox="0 0 640 640" width="640" height="640"><defs><path d="M608.38 346.98C608.38 500.73 480.36 625.55 322.67 625.55C164.98 625.55 36.95 500.73 36.95 346.98C36.95 193.23 164.98 68.41 322.67 68.41C480.36 68.41 608.38 193.23 608.38 346.98Z" id="dbhUNVgpL"></path><path d="M354.65 173.14C339.7 165.42 314.29 165.42 299.34 173.14C281.6 181.89 139.69 251.91 121.95 260.66C109.49 266.84 107.5 275.59 107.5 280.22C107.5 284.86 109.49 293.09 121.95 299.79C122.91 300.27 127.73 302.67 136.4 306.99C136.4 356.42 136.4 383.87 136.4 389.36C127.43 392.97 120.95 402.23 120.95 412.53C120.95 422.83 127.43 432.09 135.9 435.7C134.41 440.61 126.93 465.14 113.48 509.32L176.26 509.32C162.81 465.14 155.34 440.61 153.84 435.7C162.81 432.09 168.79 422.83 168.79 412.53C168.79 401.72 162.31 392.97 153.34 389.36C153.34 384.46 153.34 359.92 153.34 315.75L179.75 329.13C179.75 393.38 179.75 429.07 179.75 436.21C179.75 437.76 180.25 439.3 181.25 440.85C183.74 443.93 230.08 509.32 324.75 509.32C419.42 509.32 465.76 443.42 467.76 440.85C468.75 439.3 469.25 437.76 469.25 436.21C469.25 429.11 469.25 393.59 469.25 329.65C504.53 311.73 524.13 301.78 528.05 299.79C540.51 293.61 542.5 284.86 542.5 280.22C542 275.59 540.51 266.84 528.05 260.66C493.37 243.16 371.99 181.89 354.65 173.14ZM324.75 493.36C247.02 493.36 204.17 443.93 196.19 433.64C196.19 427.15 196.19 394.72 196.19 336.34C258.08 366.92 292.46 383.91 299.34 387.3C306.81 390.91 316.78 392.97 326.74 392.97C337.21 392.97 347.17 390.91 354.65 386.79C361.23 383.46 394.11 366.82 453.31 336.85L453.31 433.64C419.42 473.45 376.57 493.36 324.75 493.36ZM461.28 315.75C458.79 315.75 456.8 316.78 455.8 318.83C444.99 324.24 358.48 367.48 347.67 372.89C337.21 378.55 316.78 378.55 305.82 372.89C296.95 368.5 252.6 346.53 172.77 306.99C264.56 295.87 315.55 289.7 325.75 288.46C330.23 287.95 333.22 283.83 332.72 279.71C332.23 275.08 328.24 271.99 324.25 272.5C312.43 273.94 253.3 281.15 146.86 294.12C136.1 288.87 130.12 285.96 128.93 285.37C124.44 283.31 123.45 280.74 123.45 280.74C123.45 280.22 124.44 278.16 128.93 276.11C146.66 267.3 288.58 196.88 306.31 188.07C311.8 185.5 319.27 183.95 326.74 183.95C334.72 183.95 342.69 185.5 347.67 188.07C365.01 196.82 503.73 266.84 521.07 275.59C525.56 277.65 526.55 279.71 526.55 280.74C526.55 280.74 525.06 283.31 521.07 285.37C509.12 291.45 467.26 312.71 461.28 315.75Z" id="b7SDPXKxlH"></path></defs><g><g><g><g><filter id="shadow7074163" x="27.95" y="59.41" width="590.43" height="576.14" filterUnits="userSpaceOnUse" primitiveUnits="userSpaceOnUse"><feFlood></feFlood><feComposite in2="SourceAlpha" operator="in"></feComposite><feGaussianBlur stdDeviation="1"></feGaussianBlur><feOffset dx="1" dy="1" result="afterOffset"></feOffset><feFlood flood-color="#000000" flood-opacity="0.5"></feFlood><feComposite in2="afterOffset" operator="in"></feComposite><feMorphology operator="dilate" radius="1"></feMorphology><feComposite in2="SourceAlpha" operator="out"></feComposite></filter><path d="M608.38 346.98C608.38 500.73 480.36 625.55 322.67 625.55C164.98 625.55 36.95 500.73 36.95 346.98C36.95 193.23 164.98 68.41 322.67 68.41C480.36 68.41 608.38 193.23 608.38 346.98Z" id="caXC7OMA2" fill="white" fill-opacity="1" filter="url(#shadow7074163)"></path></g><use xlink:href="#dbhUNVgpL" opacity="1" fill="#ffffff" fill-opacity="0"></use><g><use xlink:href="#dbhUNVgpL" opacity="1" fill-opacity="0" stroke="#ffffff" stroke-width="30" stroke-opacity="1"></use></g></g><g><use xlink:href="#b7SDPXKxlH" opacity="1" fill="#ffffff" fill-opacity="1"></use><g><use xlink:href="#b7SDPXKxlH" opacity="1" fill-opacity="0" stroke="#ffffff" stroke-width="1" stroke-opacity="0"></use></g></g></g></g></svg>