<?xml version="1.0" encoding="UTF-8" standalone="no"?>
<!DOCTYPE svg PUBLIC "-//W3C//DTD SVG 1.1//EN" "http://www.w3.org/Graphics/SVG/1.1/DTD/svg11.dtd">
<svg version="1.1" xmlns="http://www.w3.org/2000/svg" xmlns:xlink="http://www.w3.org/1999/xlink" preserveAspectRatio="xMidYMid meet" viewBox="0 0 640 640" width="640" height="640"><defs><path d="M608.38 346.98C608.38 500.73 480.36 625.55 322.67 625.55C164.98 625.55 36.95 500.73 36.95 346.98C36.95 193.23 164.98 68.41 322.67 68.41C480.36 68.41 608.38 193.23 608.38 346.98Z" id="eaOAm9nYk"></path><path d="M154.28 191.5C132.85 191.5 115.42 209.48 115.42 231.58C115.42 255.63 115.42 448.03 115.42 472.08C115.42 494.19 132.85 512.17 154.28 512.17C187.96 512.17 457.38 512.17 491.06 512.17C512.49 512.17 529.92 494.19 529.92 472.08C529.92 448.03 529.92 255.63 529.92 231.58C529.92 209.48 512.49 191.5 491.06 191.5C423.7 191.5 187.96 191.5 154.28 191.5ZM491.06 218.22C492.82 218.22 494.49 218.6 496.02 219.26C484.47 229.59 426.68 281.25 322.67 374.24C218.65 281.25 160.87 229.59 149.31 219.26C150.84 218.6 152.52 218.22 154.28 218.22C221.63 218.22 423.7 218.22 491.06 218.22ZM154.28 485.44C147.13 485.44 141.32 479.46 141.32 472.08C141.32 457.11 141.32 382.24 141.32 247.49C245.04 340.2 302.66 391.71 314.18 402.02C316.62 404.19 319.64 405.28 322.67 405.28C325.69 405.28 328.71 404.19 331.16 402.02C342.68 391.71 400.3 340.2 504.01 247.49C504.01 382.25 504.01 457.11 504.01 472.08C504.01 479.46 498.2 485.44 491.06 485.44C423.7 485.44 187.96 485.44 154.28 485.44Z" id="j1aWLlOUp2"></path></defs><g><g><g><g><filter id="shadow7135893" x="27.95" y="59.41" width="590.43" height="576.14" filterUnits="userSpaceOnUse" primitiveUnits="userSpaceOnUse"><feFlood></feFlood><feComposite in2="SourceAlpha" operator="in"></feComposite><feGaussianBlur stdDeviation="1"></feGaussianBlur><feOffset dx="1" dy="1" result="afterOffset"></feOffset><feFlood flood-color="#000000" flood-opacity="0.5"></feFlood><feComposite in2="afterOffset" operator="in"></feComposite><feMorphology operator="dilate" radius="1"></feMorphology><feComposite in2="SourceAlpha" operator="out"></feComposite></filter><path d="M608.38 346.98C608.38 500.73 480.36 625.55 322.67 625.55C164.98 625.55 36.95 500.73 36.95 346.98C36.95 193.23 164.98 68.41 322.67 68.41C480.36 68.41 608.38 193.23 608.38 346.98Z" id="c3N3lZIJTz" fill="white" fill-opacity="1" filter="url(#shadow7135893)"></path></g><use xlink:href="#eaOAm9nYk" opacity="1" fill="#ffffff" fill-opacity="0"></use><g><use xlink:href="#eaOAm9nYk" opacity="1" fill-opacity="0" stroke="#ffffff" stroke-width="30" stroke-opacity="1"></use></g></g><g><use xlink:href="#j1aWLlOUp2" opacity="1" fill="#ffffff" fill-opacity="1"></use><g><use xlink:href="#j1aWLlOUp2" opacity="1" fill-opacity="0" stroke="#ffffff" stroke-width="1" stroke-opacity="1"></use></g></g></g></g></svg>