<svg width="53" height="53" viewBox="0 0 53 53" fill="none" xmlns="http://www.w3.org/2000/svg">
<path d="M26.5 46.8857C37.7903 46.8857 46.9428 37.7331 46.9428 26.4429C46.9428 15.1526 37.7903 6 26.5 6C15.2097 6 6.05713 15.1526 6.05713 26.4429C6.05713 37.7331 15.2097 46.8857 26.5 46.8857Z" fill="white"/>
<path d="M23.7616 22.3915C22.853 21.0286 21.4901 20.3472 19.8244 20.3472C17.8558 20.3472 16.1144 21.2557 16.0387 21.3315C11.0416 24.0572 13.4644 30.2657 13.4644 30.2657C15.1301 35.7172 17.4016 38.4429 20.1273 38.4429C21.9444 38.4429 23.2316 37.1557 23.3073 37.08C25.1244 34.8843 22.853 31.4015 22.7773 31.3257C22.0201 30.0386 23.1558 27.9186 23.1558 27.9186C25.2001 24.6629 23.8373 22.4672 23.7616 22.3915Z" fill="black"/>
<path d="M23.9888 16.8643C22.9288 16.8643 22.0203 17.9243 22.0203 19.2114C22.0203 20.4985 22.9288 21.5585 23.9888 21.5585C25.0488 21.5585 25.9574 20.4985 25.9574 19.2114C25.9574 17.9243 25.0488 16.8643 23.9888 16.8643Z" fill="black"/>
<path d="M20.2788 19.5142C21.1987 19.5142 21.9445 18.6668 21.9445 17.6214C21.9445 16.576 21.1987 15.7285 20.2788 15.7285C19.3588 15.7285 18.613 16.576 18.613 17.6214C18.613 18.6668 19.3588 19.5142 20.2788 19.5142Z" fill="black"/>
<path d="M17.0988 20.0443C17.2503 20.0443 17.326 20.0443 17.4774 19.9686C17.856 19.8171 18.2345 19.5143 18.386 19.1357C18.5374 18.7571 18.5374 18.2271 18.4617 17.7728C18.1588 16.7886 17.2503 16.1828 16.4174 16.41C15.5845 16.6371 15.1303 17.6214 15.4331 18.6057C15.736 19.4386 16.3417 20.0443 17.0988 20.0443ZM14.2974 21.2557C14.4488 21.2557 14.5245 21.2557 14.6003 21.18C15.3574 20.9528 15.736 20.12 15.5088 19.2114C15.2817 18.3786 14.4488 17.8486 13.6917 18C13.3888 18.1514 13.1617 18.3786 12.9345 18.6814C12.7074 19.06 12.7074 19.59 12.8588 20.0443C13.0103 20.7257 13.616 21.2557 14.2974 21.2557ZM13.5403 21.6343C13.2374 20.8771 12.4803 20.4228 11.7988 20.65C11.1174 20.8771 10.8145 21.71 11.1174 22.5428C11.3445 23.1486 11.8745 23.6028 12.4803 23.6028C12.6317 23.6028 12.7831 23.6028 12.8588 23.5271C13.5403 23.2243 13.8431 22.3914 13.5403 21.6343Z" fill="black"/>
<path d="M28.1957 31.7799C29.1043 33.1428 30.4671 33.8242 32.1329 33.8242C34.1014 33.8242 35.8429 32.9156 35.9186 32.8399C40.9157 30.1142 38.4929 23.9057 38.4929 23.9057C36.8271 18.4542 34.5557 15.7285 31.83 15.7285C30.0129 15.7285 28.7257 17.0157 28.65 17.0914C26.8329 19.2871 29.1043 22.7699 29.18 22.8457C29.9371 24.1328 28.8014 26.2528 28.8014 26.2528C26.7572 29.5085 28.12 31.7042 28.1957 31.7799Z" fill="black"/>
<path d="M27.9684 37.3071C29.0284 37.3071 29.937 36.2471 29.937 34.96C29.937 33.6728 29.0284 32.6128 27.9684 32.6128C26.9084 32.6128 25.9999 33.6728 25.9999 34.96C25.9999 36.2471 26.9084 37.3071 27.9684 37.3071Z" fill="black"/>
<path d="M31.6785 34.6572C30.7586 34.6572 30.0128 35.5046 30.0128 36.55C30.0128 37.5954 30.7586 38.4429 31.6785 38.4429C32.5985 38.4429 33.3442 37.5954 33.3442 36.55C33.3442 35.5046 32.5985 34.6572 31.6785 34.6572Z" fill="black"/>
<path d="M34.8585 34.1271C34.707 34.1271 34.6313 34.1271 34.4799 34.2028C34.1013 34.3543 33.7227 34.6571 33.5713 35.0357C33.4199 35.4143 33.4199 35.9443 33.4956 36.3985C33.7985 37.3828 34.707 37.9885 35.5399 37.7614C36.3727 37.5343 36.827 36.55 36.5242 35.5657C36.2213 34.7328 35.6156 34.1271 34.8585 34.1271ZM37.6599 32.9157C37.5085 32.9157 37.4327 32.9157 37.357 32.9914C36.5999 33.2185 36.2213 34.0514 36.4485 34.96C36.6756 35.7928 37.5085 36.3228 38.2656 36.1714C38.5685 36.02 38.7956 35.7928 39.0227 35.49C39.2499 35.1114 39.2499 34.5814 39.0985 34.1271C38.947 33.4457 38.3413 32.9157 37.6599 32.9157ZM38.417 32.5371C38.7199 33.2943 39.477 33.7485 40.1585 33.5214C40.8399 33.2943 41.1427 32.4614 40.8399 31.6285C40.6127 31.0228 40.0827 30.5685 39.477 30.5685C39.3256 30.5685 39.1742 30.5685 39.0985 30.6443C38.417 30.9471 38.1142 31.78 38.417 32.5371Z" fill="black"/>
</svg>
