<?xml version="1.0" encoding="UTF-8" standalone="no"?>
<!DOCTYPE svg PUBLIC "-//W3C//DTD SVG 1.1//EN" "http://www.w3.org/Graphics/SVG/1.1/DTD/svg11.dtd">
<svg version="1.1" xmlns="http://www.w3.org/2000/svg" xmlns:xlink="http://www.w3.org/1999/xlink" preserveAspectRatio="xMidYMid meet" viewBox="0 0 640 640" width="640" height="640"><defs><path d="M160.25 286.77C158.93 290.47 158.25 294.36 158.25 298.29C158.25 305.2 158.25 339.74 158.25 401.91C133.85 466.98 120.29 503.13 117.58 510.36C116.25 513.9 118.05 517.85 121.59 519.18C122.36 519.47 123.18 519.62 124 519.62C134.27 519.62 216.48 519.62 226.76 519.62C229.9 519.62 232.64 517.48 233.4 514.43C234.44 510.27 239.63 489.48 248.98 452.06C248.98 452.09 248.98 452.1 248.98 452.1C252.2 489.96 284.5 519.62 322.53 519.62C360.7 519.62 393.01 489.8 396.08 451.72C396.09 451.68 396.1 451.51 396.12 451.2C405.61 489.14 410.88 510.21 411.93 514.43C412.69 517.48 415.43 519.62 418.58 519.62C428.85 519.62 511.06 519.62 521.34 519.62C525.12 519.62 528.19 516.55 528.19 512.77C528.19 511.94 528.04 511.13 527.75 510.36C525.04 503.13 511.49 466.98 487.09 401.91C487.09 339.74 487.09 305.2 487.09 298.29C487.09 294.36 486.41 290.47 485.08 286.77C482.47 279.44 461.54 220.84 458.93 213.52C454.04 199.9 441.14 190.8 426.67 190.78C426.02 190.78 422.77 190.78 416.94 190.78L418.58 170.23C418.58 149.68 418.58 138.26 418.58 135.98C418.59 120.85 406.33 108.58 391.2 108.57C383.82 108.57 376.74 111.55 371.59 116.83C362.92 106.84 347.8 105.76 337.81 114.42C337.31 114.86 336.83 115.31 336.37 115.79C327.12 106.32 311.94 106.15 302.48 115.4C299.7 118.13 297.62 121.48 296.42 125.19C284.79 118.87 270.24 123.17 263.92 134.81C263.21 136.11 262.62 137.48 262.17 138.89C250.54 132.57 235.98 136.88 229.66 148.51C227.76 152.02 226.76 155.96 226.76 159.95C226.76 162.01 226.77 172.29 226.78 190.78C221.92 190.78 219.21 190.78 218.67 190.78C204.2 190.8 191.29 199.89 186.41 213.52C186.41 213.52 162.87 279.44 160.25 286.77ZM415.84 204.48C422.34 204.48 425.94 204.48 426.67 204.48C435.35 204.5 443.09 209.95 446.03 218.13C448.64 225.45 469.57 284.05 472.19 291.38C472.98 293.6 473.38 295.94 473.38 298.29C473.38 308.78 473.38 392.67 473.38 403.15C473.38 403.98 473.53 404.79 473.82 405.56C476.33 412.25 488.87 445.7 511.45 505.92L423.92 505.92L397.64 400.87C373.7 333.05 360.4 295.37 357.74 287.84C357.2 286.3 356.92 284.69 356.92 283.07C356.92 282.81 356.92 280.72 356.92 280.46C356.92 272.55 363.33 266.14 371.24 266.14C376.67 266.14 381.62 269.2 384.05 274.05C386.86 279.67 400.89 307.74 426.15 358.26L438.41 352.14L408.78 292.88L415.84 204.48ZM240.46 159.95C240.46 154.28 245.06 149.68 250.74 149.68C256.41 149.68 261.01 154.28 261.01 159.95C261.01 161.1 261.01 166.81 261.01 177.08L274.71 177.08C274.71 158.58 274.71 148.31 274.71 146.25C274.71 140.58 279.31 135.98 284.99 135.98C290.66 135.98 295.27 140.58 295.27 146.25C295.27 147.85 295.27 155.84 295.27 170.23L308.97 170.23C308.97 147.62 308.97 135.06 308.97 132.55C308.97 126.88 313.57 122.28 319.24 122.28C324.92 122.28 329.52 126.88 329.52 132.55C329.52 134.61 329.52 144.88 329.52 163.38L343.22 163.38C343.22 144.88 343.22 134.61 343.22 132.55C343.22 126.88 347.82 122.28 353.5 122.28C359.17 122.28 363.77 126.88 363.77 132.55C363.77 134.61 363.77 144.88 363.77 163.38L377.47 163.38C377.47 146.94 377.47 137.8 377.47 135.98C377.47 128.41 383.61 122.28 391.18 122.28C398.74 122.28 404.88 128.41 404.88 135.98C404.88 138.22 404.88 149.46 404.9 169.69L396.93 269.17C396.56 268.43 396.35 268.01 396.31 267.93C389.39 254.08 372.56 248.47 358.71 255.39C349.22 260.14 343.22 269.84 343.22 280.46C343.22 280.72 343.22 282.81 343.22 283.07C343.22 286.24 343.76 289.4 344.81 292.39C347.46 299.89 360.7 337.36 384.53 404.82L385.7 409.49C383.73 434.17 382.64 447.88 382.42 450.63C379.77 481.77 353.79 505.75 322.53 505.92C291.57 505.92 265.25 481.77 262.63 450.94C262.4 448.28 261.27 434.97 259.23 411.02L260.62 405.44C284.56 337.61 297.86 299.92 300.52 292.38C301.58 289.39 302.12 286.24 302.12 283.07C302.12 282.81 302.12 280.72 302.12 280.46C302.12 264.98 289.57 252.44 274.09 252.44C263.48 252.44 253.78 258.43 249.03 267.93C248.92 268.15 248.35 269.29 247.33 271.33L240.46 190.78C240.46 174.34 240.46 164.07 240.46 159.95ZM235.59 294.81L206.93 352.14L219.18 358.26C244.45 307.74 258.48 279.67 261.29 274.05C264.82 266.98 273.43 264.11 280.5 267.65C285.35 270.08 288.42 275.04 288.41 280.46C288.41 280.72 288.41 282.81 288.41 283.07C288.42 284.69 288.14 286.3 287.6 287.83C284.93 295.41 271.57 333.3 247.52 401.49L221.41 505.92L133.89 505.92C156.47 445.7 169.01 412.25 171.52 405.56C171.81 404.79 171.95 403.98 171.95 403.15C171.95 392.67 171.95 308.78 171.95 298.29C171.95 295.94 172.36 293.6 173.15 291.38C175.77 284.05 196.69 225.45 199.31 218.12C202.25 209.95 209.99 204.5 218.67 204.48C219.29 204.48 222.36 204.48 227.9 204.48L235.59 294.81Z" id="bQ6MOZB60"></path><path d="M309.46 261.84L322.18 256.74C321.74 255.65 321.5 255.05 321.45 254.92C312.71 233.06 289.61 220.55 266.52 225.17C266.79 226.51 268.94 237.26 269.21 238.6C285.82 235.28 302.44 244.29 308.73 260.02C308.82 260.26 309.07 260.87 309.46 261.84Z" id="aGLSHgQpt"></path><path d="M315.82 286.02C311.27 309.12 320.32 332.79 339.11 346.98C339.93 345.88 346.5 337.11 347.33 336.02C332.74 325.01 325.72 306.64 329.25 288.71C329.26 288.66 329.3 288.44 329.38 288.04L315.95 285.34C315.88 285.7 315.84 285.93 315.82 286.02Z" id="a1ZoGGAQb"></path><path d="M608.38 346.98C608.38 500.73 480.36 625.55 322.67 625.55C164.98 625.55 36.95 500.73 36.95 346.98C36.95 193.23 164.98 68.41 322.67 68.41C480.36 68.41 608.38 193.23 608.38 346.98Z" id="bobkHusC"></path></defs><g><g><g><use xlink:href="#bQ6MOZB60" opacity="1" fill-opacity="1"></use><g><use xlink:href="#bQ6MOZB60" opacity="1" fill-opacity="0" stroke="#ffffff" stroke-width="1" stroke-opacity="0"></use></g></g><g><use xlink:href="#aGLSHgQpt" opacity="1" fill-opacity="1"></use><g><use xlink:href="#aGLSHgQpt" opacity="1" fill-opacity="0" stroke="#ffffff" stroke-width="1" stroke-opacity="0"></use></g></g><g><use xlink:href="#a1ZoGGAQb" opacity="1"  fill-opacity="1"></use><g><use xlink:href="#a1ZoGGAQb" opacity="1" fill-opacity="0" stroke="#ffffff" stroke-width="1" stroke-opacity="0"></use></g></g><g><g><filter id="shadow12251404" x="27.95" y="59.41" width="590.43" height="576.14" filterUnits="userSpaceOnUse" primitiveUnits="userSpaceOnUse"><feFlood></feFlood><feComposite in2="SourceAlpha" operator="in"></feComposite><feGaussianBlur stdDeviation="1"></feGaussianBlur><feOffset dx="1" dy="1" result="afterOffset"></feOffset><feFlood  flood-opacity="0.5"></feFlood><feComposite in2="afterOffset" operator="in"></feComposite><feMorphology operator="dilate" radius="1"></feMorphology><feComposite in2="SourceAlpha" operator="out"></feComposite></filter><path d="M608.38 346.98C608.38 500.73 480.36 625.55 322.67 625.55C164.98 625.55 36.95 500.73 36.95 346.98C36.95 193.23 164.98 68.41 322.67 68.41C480.36 68.41 608.38 193.23 608.38 346.98Z" id="bV4rfohff"  fill-opacity="1" filter="url(#shadow12251404)"></path></g><use xlink:href="#bobkHusC" opacity="1"  fill-opacity="0"></use><g><use xlink:href="#bobkHusC" opacity="1" fill-opacity="0" stroke="#ffffff" stroke-width="30" stroke-opacity="1"></use></g></g></g></g></svg>