<?xml version="1.0" encoding="UTF-8" standalone="no"?>
<!DOCTYPE svg PUBLIC "-//W3C//DTD SVG 1.1//EN" "http://www.w3.org/Graphics/SVG/1.1/DTD/svg11.dtd">
<svg version="1.1" xmlns="http://www.w3.org/2000/svg" xmlns:xlink="http://www.w3.org/1999/xlink" preserveAspectRatio="xMidYMid meet" viewBox="0 0 640 640" width="640" height="640"><defs><path d="M608.38 346.98C608.38 500.73 480.36 625.55 322.67 625.55C164.98 625.55 36.95 500.73 36.95 346.98C36.95 193.23 164.98 68.41 322.67 68.41C480.36 68.41 608.38 193.23 608.38 346.98Z" id="d31tZn266d"></path><path d="M333.78 120.15L337.34 120.33L340.89 120.58L344.42 120.91L347.94 121.31L351.44 121.77L354.93 122.31L358.4 122.92L361.85 123.6L365.28 124.35L368.7 125.17L372.09 126.06L375.47 127.02L378.82 128.05L382.15 129.14L385.45 130.3L388.73 131.53L391.99 132.83L395.22 134.19L398.43 135.62L401.61 137.12L404.76 138.68L407.88 140.31L410.97 142L414.04 143.76L417.07 145.58L420.07 147.46L423.04 149.41L425.97 151.42L428.87 153.5L431.73 155.64L434.56 157.84L437.36 160.1L440.11 162.43L442.83 164.81L445.51 167.26L448.15 169.77L450.75 172.34L453.31 174.97L455.82 177.65L458.27 180.37L460.67 183.13L463 185.94L465.28 188.79L467.5 191.68L469.66 194.6L471.76 197.57L473.8 200.57L475.78 203.6L477.71 206.68L479.57 209.79L481.37 212.93L483.11 216.1L484.78 219.31L486.4 222.55L487.95 225.82L489.44 229.12L490.87 232.45L492.24 235.81L493.54 239.2L494.78 242.61L495.95 246.05L497.06 249.51L498.1 253L499.08 256.51L500 260.04L500.85 263.6L501.63 267.17L502.34 270.77L502.99 274.39L503.58 278.02L504.09 281.67L504.54 285.34L504.92 289.03L505.23 292.73L505.47 296.44L505.65 300.17L505.75 303.91L505.78 307.67L505.74 311.94L505.6 316.2L505.38 320.44L505.06 324.66L504.66 328.85L504.17 333.03L503.59 337.19L502.93 341.32L502.18 345.43L501.34 349.51L500.42 353.56L499.42 357.58L498.33 361.58L497.15 365.54L495.9 369.47L494.56 373.37L493.14 377.23L491.64 381.06L490.06 384.84L488.4 388.59L486.66 392.3L484.84 395.97L482.94 399.6L480.96 403.18L478.91 406.72L476.78 410.21L474.58 413.66L472.3 417.05L469.95 420.4L467.52 423.7L465.01 426.94L462.44 430.13L459.79 433.27L457.07 436.35L454.28 439.37L451.42 442.34L448.49 445.25L445.49 448.09L442.41 450.88L439.28 453.6L439.28 558.47L439.27 558.74L439.26 559L439.23 559.27L439.19 559.53L439.15 559.79L439.09 560.04L439.03 560.29L438.96 560.53L438.88 560.77L438.79 561.01L438.69 561.24L438.58 561.47L438.46 561.69L438.34 561.91L438.21 562.12L438.07 562.33L437.93 562.53L437.77 562.72L437.62 562.91L437.45 563.09L437.28 563.26L437.1 563.43L436.91 563.59L436.72 563.74L436.53 563.88L436.33 564.02L436.12 564.15L435.91 564.27L435.69 564.38L435.47 564.49L435.24 564.58L435.01 564.67L434.78 564.74L434.54 564.81L434.3 564.87L434.05 564.91L433.8 564.95L433.55 564.98L433.3 564.99L433.04 565L432.78 564.99L432.53 564.98L432.28 564.95L432.03 564.91L431.78 564.87L431.54 564.81L431.3 564.74L431.07 564.67L430.84 564.58L430.61 564.49L430.39 564.38L430.17 564.27L429.96 564.15L429.76 564.02L429.55 563.88L429.36 563.74L429.17 563.59L428.98 563.43L428.8 563.26L428.63 563.09L428.47 562.91L428.31 562.72L428.15 562.53L428.01 562.33L427.87 562.12L427.74 561.91L427.62 561.69L427.5 561.47L427.39 561.24L427.29 561.01L427.2 560.77L427.12 560.53L427.05 560.29L426.99 560.04L426.93 559.79L426.89 559.53L426.85 559.27L426.83 559L426.81 558.74L426.8 558.47L426.8 450.45L426.81 450.3L426.81 450.15L426.82 450L426.83 449.85L426.85 449.7L426.86 449.55L426.88 449.4L426.91 449.26L426.94 449.11L426.97 448.97L427 448.82L427.04 448.68L427.08 448.54L427.12 448.4L427.16 448.26L427.21 448.12L427.26 447.99L427.32 447.85L427.38 447.72L427.44 447.58L427.5 447.45L427.56 447.32L427.63 447.19L427.7 447.07L427.78 446.94L427.85 446.82L427.93 446.7L428.02 446.58L428.1 446.46L428.19 446.34L428.28 446.23L428.37 446.12L428.47 446.01L428.56 445.9L428.66 445.79L428.77 445.69L428.87 445.59L428.98 445.49L429.09 445.39L429.2 445.3L432.22 442.77L435.18 440.17L438.07 437.51L440.9 434.8L443.65 432.02L446.34 429.19L448.96 426.31L451.51 423.37L454 420.37L456.41 417.33L458.75 414.23L461.02 411.08L463.21 407.88L465.34 404.64L467.39 401.35L469.37 398.02L471.27 394.64L473.1 391.22L474.86 387.76L476.54 384.26L478.14 380.72L479.66 377.14L481.11 373.52L482.48 369.87L483.77 366.19L484.98 362.47L486.11 358.73L487.17 354.95L488.14 351.14L489.03 347.3L489.83 343.44L490.56 339.55L491.2 335.64L491.76 331.7L492.23 327.74L492.62 323.77L492.92 319.77L493.14 315.75L493.27 311.72L493.31 307.67L493.17 300.48L492.76 293.37L492.08 286.33L491.13 279.38L489.92 272.52L488.46 265.76L486.75 259.09L484.8 252.54L482.61 246.09L480.19 239.77L477.55 233.57L474.68 227.49L471.6 221.56L468.31 215.76L464.81 210.11L461.11 204.61L457.22 199.27L453.14 194.1L448.88 189.09L444.44 184.26L439.82 179.61L435.04 175.14L430.1 170.87L425.01 166.8L419.76 162.92L414.37 159.26L408.83 155.81L403.16 152.58L397.37 149.58L391.45 146.81L385.41 144.27L379.26 141.98L373 139.94L366.64 138.15L360.18 136.62L353.63 135.35L346.99 134.36L340.28 133.64L333.49 133.21L326.63 133.06L319.77 133.21L312.98 133.64L306.26 134.36L299.63 135.35L293.08 136.62L286.62 138.15L280.26 139.94L274 141.98L267.85 144.27L261.81 146.81L255.89 149.58L250.09 152.58L244.42 155.81L238.89 159.26L233.5 162.92L228.25 166.8L223.15 170.87L218.21 175.14L213.43 179.61L208.82 184.26L204.38 189.09L200.11 194.1L196.03 199.27L192.14 204.61L188.45 210.11L184.95 215.76L181.66 221.56L178.57 227.49L175.71 233.57L173.06 239.77L170.64 246.09L168.45 252.54L166.5 259.09L164.79 265.76L163.33 272.52L162.13 279.38L161.18 286.33L160.49 293.37L160.08 300.48L159.94 307.67L159.94 307.74L159.94 307.82L159.94 307.89L159.93 307.97L159.93 308.05L159.93 308.12L159.92 308.2L159.91 308.27L159.91 308.35L159.9 308.42L159.89 308.5L159.88 308.57L159.87 308.65L159.86 308.72L159.85 308.8L159.83 308.87L159.82 308.95L159.81 309.02L159.79 309.09L159.77 309.17L159.76 309.24L159.74 309.31L159.72 309.39L159.7 309.46L159.68 309.53L159.66 309.6L159.64 309.68L159.62 309.75L159.59 309.82L159.57 309.89L159.54 309.96L159.52 310.03L159.49 310.1L159.46 310.17L159.43 310.24L159.41 310.31L159.38 310.38L159.35 310.45L159.31 310.52L159.28 310.59L128.61 374.84L156.91 392.63L157.05 392.72L157.19 392.82L157.32 392.91L157.45 393.01L157.58 393.12L157.71 393.23L157.83 393.34L157.95 393.45L158.07 393.56L158.18 393.68L158.29 393.81L158.4 393.93L158.5 394.06L158.6 394.19L158.7 394.32L158.79 394.45L158.88 394.59L158.97 394.73L159.05 394.87L159.13 395.02L159.21 395.16L159.28 395.31L159.35 395.46L159.42 395.61L159.48 395.77L159.54 395.92L159.59 396.08L159.64 396.24L159.69 396.4L159.73 396.56L159.77 396.72L159.81 396.88L159.84 397.05L159.86 397.22L159.89 397.38L159.91 397.55L159.92 397.72L159.93 397.89L159.94 398.06L159.94 398.23L159.94 496.2L220.22 496.2L220.47 496.21L220.73 496.23L220.98 496.25L221.23 496.29L221.47 496.34L221.71 496.39L221.95 496.46L222.19 496.54L222.42 496.62L222.64 496.72L222.86 496.82L223.08 496.93L223.29 497.05L223.5 497.18L223.7 497.32L223.9 497.46L224.09 497.62L224.27 497.78L224.45 497.94L224.62 498.12L224.79 498.3L224.95 498.48L225.1 498.68L225.25 498.88L225.39 499.08L225.52 499.29L225.64 499.51L225.76 499.73L225.86 499.96L225.96 500.19L226.05 500.43L226.13 500.67L226.21 500.92L226.27 501.17L226.32 501.42L226.37 501.68L226.4 501.94L226.43 502.2L226.45 502.47L226.45 502.74L226.45 558.47L226.45 558.74L226.43 559.01L226.4 559.27L226.37 559.53L226.32 559.79L226.27 560.04L226.21 560.29L226.13 560.53L226.05 560.78L225.96 561.01L225.86 561.24L225.76 561.47L225.64 561.69L225.52 561.91L225.39 562.12L225.25 562.33L225.1 562.53L224.95 562.72L224.79 562.91L224.62 563.09L224.45 563.26L224.27 563.43L224.09 563.59L223.9 563.74L223.7 563.89L223.5 564.02L223.29 564.15L223.08 564.27L222.86 564.38L222.64 564.49L222.42 564.58L222.19 564.67L221.95 564.74L221.71 564.81L221.47 564.87L221.23 564.92L220.98 564.95L220.73 564.98L220.47 565L220.22 565L219.96 565L219.7 564.98L219.45 564.95L219.2 564.92L218.96 564.87L218.72 564.81L218.48 564.74L218.24 564.67L218.01 564.58L217.79 564.49L217.57 564.38L217.35 564.27L217.14 564.15L216.93 564.02L216.73 563.89L216.53 563.74L216.34 563.59L216.16 563.43L215.98 563.26L215.81 563.09L215.64 562.91L215.48 562.72L215.33 562.53L215.18 562.33L215.05 562.12L214.91 561.91L214.79 561.69L214.68 561.47L214.57 561.24L214.47 561.01L214.38 560.78L214.3 560.53L214.23 560.29L214.16 560.04L214.11 559.79L214.06 559.53L214.03 559.27L214 559.01L213.99 558.74L213.98 558.47L213.98 509.27L153.71 509.27L153.45 509.26L153.2 509.25L152.94 509.22L152.7 509.18L152.45 509.13L152.21 509.08L151.97 509.01L151.74 508.93L151.51 508.85L151.28 508.75L151.06 508.65L150.84 508.54L150.63 508.42L150.42 508.29L150.22 508.15L150.02 508.01L149.83 507.85L149.65 507.69L149.47 507.53L149.3 507.35L149.13 507.17L148.97 506.99L148.82 506.79L148.67 506.59L148.54 506.39L148.41 506.18L148.28 505.96L148.17 505.74L148.06 505.51L147.96 505.28L147.87 505.04L147.79 504.8L147.72 504.55L147.65 504.3L147.6 504.05L147.55 503.79L147.52 503.53L147.49 503.27L147.48 503L147.47 502.74L147.47 401.93L117.24 382.93L117.04 382.8L116.84 382.66L116.65 382.51L116.46 382.35L116.28 382.19L116.11 382.02L115.94 381.85L115.79 381.67L115.63 381.48L115.49 381.29L115.35 381.1L115.23 380.9L115.1 380.69L114.99 380.48L114.88 380.27L114.78 380.06L114.69 379.84L114.61 379.61L114.53 379.39L114.47 379.16L114.41 378.93L114.35 378.7L114.31 378.46L114.28 378.23L114.25 377.99L114.23 377.75L114.22 377.51L114.22 377.27L114.22 377.03L114.24 376.79L114.26 376.54L114.29 376.3L114.34 376.06L114.39 375.82L114.44 375.58L114.51 375.35L114.59 375.11L114.68 374.88L114.77 374.64L114.88 374.41L147.48 306.11L147.54 302.4L147.67 298.7L147.87 295.02L148.13 291.35L148.47 287.69L148.87 284.05L149.33 280.42L149.86 276.81L150.46 273.22L151.13 269.65L151.85 266.1L152.65 262.56L153.51 259.05L154.43 255.56L155.41 252.09L156.46 248.65L157.58 245.23L158.75 241.83L159.99 238.46L161.29 235.11L162.66 231.8L164.08 228.51L165.57 225.25L167.12 222.01L168.73 218.81L170.4 215.64L172.13 212.51L173.91 209.4L175.76 206.33L177.67 203.29L179.64 200.29L181.66 197.32L183.75 194.39L185.89 191.5L188.09 188.64L190.35 185.83L192.66 183.05L195.03 180.31L197.46 177.62L199.94 174.97L202.5 172.34L205.1 169.77L207.74 167.26L210.42 164.81L213.14 162.43L215.9 160.1L218.69 157.84L221.52 155.64L224.38 153.5L227.28 151.42L230.22 149.41L233.19 147.46L236.19 145.58L239.22 143.76L242.28 142L245.37 140.31L248.49 138.68L251.65 137.12L254.82 135.62L258.03 134.19L261.26 132.83L264.52 131.53L267.8 130.3L271.11 129.14L274.44 128.05L277.79 127.02L281.16 126.06L284.56 125.17L287.97 124.35L291.4 123.6L294.85 122.92L298.32 122.31L301.81 121.77L305.31 121.31L308.83 120.91L312.36 120.58L315.91 120.33L319.47 120.15L323.04 120.04L326.63 120L330.21 120.04L333.78 120.15ZM231.17 412.77L231.41 412.79L231.64 412.82L231.88 412.87L232.12 412.92L232.35 412.98L232.58 413.05L232.81 413.13L233.04 413.23L233.26 413.33L233.48 413.44L233.7 413.56L233.91 413.68L234.12 413.82L234.33 413.97L234.53 414.13L234.72 414.3L234.91 414.47L235.1 414.66L252.08 432.45L333.54 432.45L379.96 422.73L380.11 422.7L380.27 422.67L380.42 422.65L380.57 422.63L380.73 422.62L380.88 422.61L381.04 422.6L381.19 422.6L381.34 422.6L381.49 422.61L381.65 422.62L381.8 422.63L381.95 422.65L382.1 422.67L382.25 422.7L382.4 422.73L382.55 422.76L382.7 422.8L382.84 422.84L382.99 422.88L383.13 422.93L383.28 422.98L383.42 423.04L383.56 423.09L383.7 423.16L383.84 423.22L383.98 423.29L384.11 423.37L384.24 423.44L384.38 423.52L384.51 423.61L384.64 423.69L384.76 423.78L384.89 423.88L385.01 423.98L385.13 424.08L385.25 424.18L385.37 424.29L385.48 424.4L385.59 424.51L405.78 445.66L405.95 445.84L406.11 446.03L406.26 446.22L406.4 446.42L406.53 446.62L406.66 446.82L406.78 447.04L406.89 447.25L406.99 447.47L407.08 447.69L407.17 447.91L407.25 448.14L407.32 448.37L407.38 448.6L407.43 448.83L407.48 449.07L407.52 449.31L407.55 449.55L407.57 449.78L407.58 450.02L407.59 450.26L407.58 450.5L407.57 450.74L407.55 450.98L407.52 451.22L407.49 451.46L407.44 451.7L407.39 451.93L407.33 452.16L407.26 452.39L407.18 452.62L407.1 452.85L407 453.07L406.9 453.29L406.79 453.5L406.67 453.72L406.54 453.92L406.41 454.13L406.26 454.33L406.11 454.52L405.93 454.73L405.75 454.93L405.56 455.12L405.36 455.3L405.15 455.47L404.94 455.62L404.73 455.77L404.51 455.91L404.28 456.04L404.06 456.16L403.82 456.26L403.59 456.36L403.35 456.45L403.11 456.53L402.86 456.59L402.61 456.65L402.37 456.7L402.12 456.73L401.86 456.76L401.61 456.77L401.36 456.78L401.11 456.77L400.86 456.76L400.61 456.73L400.36 456.7L400.11 456.65L399.86 456.59L399.62 456.53L399.37 456.45L399.13 456.36L398.9 456.26L398.66 456.15L398.43 456.03L398.21 455.9L397.99 455.76L397.77 455.61L397.56 455.45L397.35 455.27L397.16 455.09L396.96 454.9L379.13 436.22L335.38 445.39L335.35 445.39L335.32 445.4L335.29 445.41L335.26 445.41L335.23 445.42L335.19 445.42L335.16 445.43L335.13 445.43L335.1 445.44L335.07 445.44L335.04 445.45L335.01 445.45L334.98 445.46L334.95 445.46L334.92 445.46L334.89 445.47L334.86 445.47L334.83 445.48L334.8 445.48L334.77 445.48L334.74 445.49L334.71 445.49L334.68 445.49L334.65 445.49L334.61 445.5L334.58 445.5L334.55 445.5L334.52 445.5L334.49 445.5L334.46 445.51L334.43 445.51L334.4 445.51L334.37 445.51L334.34 445.51L334.31 445.51L334.28 445.51L334.25 445.51L334.22 445.51L334.18 445.51L334.15 445.51L249.5 445.51L249.38 445.51L249.25 445.51L249.13 445.5L249.01 445.49L248.88 445.48L248.76 445.47L248.64 445.45L248.52 445.43L248.4 445.41L248.28 445.39L248.16 445.36L248.04 445.33L247.92 445.3L247.8 445.27L247.69 445.23L247.57 445.19L247.46 445.15L247.34 445.11L247.23 445.06L247.12 445.02L247 444.97L246.89 444.92L246.78 444.86L246.67 444.8L246.57 444.75L246.46 444.68L246.35 444.62L246.25 444.55L246.14 444.49L246.04 444.42L245.94 444.35L245.84 444.27L245.74 444.19L245.65 444.12L245.55 444.04L245.46 443.95L245.36 443.87L245.27 443.78L245.18 443.69L245.09 443.6L226.28 423.9L226.1 423.7L225.93 423.5L225.78 423.3L225.62 423.09L225.48 422.87L225.35 422.65L225.23 422.43L225.11 422.2L225.01 421.97L224.91 421.74L224.83 421.5L224.75 421.26L224.68 421.02L224.62 420.77L224.57 420.53L224.53 420.28L224.5 420.03L224.47 419.78L224.46 419.53L224.46 419.28L224.46 419.03L224.47 418.78L224.5 418.53L224.53 418.28L224.57 418.03L224.62 417.79L224.68 417.54L224.75 417.3L224.83 417.06L224.91 416.82L225.01 416.59L225.11 416.36L225.23 416.13L225.35 415.9L225.48 415.69L225.62 415.47L225.78 415.26L225.93 415.05L226.1 414.85L226.28 414.66L226.47 414.47L226.66 414.3L226.85 414.13L227.05 413.97L227.26 413.82L227.47 413.68L227.68 413.56L227.9 413.44L228.12 413.33L228.34 413.23L228.57 413.13L228.8 413.05L229.03 412.98L229.26 412.92L229.5 412.87L229.74 412.82L229.97 412.79L230.21 412.77L230.45 412.75L230.69 412.75L230.93 412.75L231.17 412.77ZM246.3 315.14L247.05 315.21L247.79 315.32L248.53 315.45L249.27 315.62L250 315.81L250.73 316.04L251.45 316.29L252.16 316.57L252.86 316.89L253.55 317.23L254.23 317.61L254.9 318.01L255.55 318.44L256.2 318.91L256.82 319.4L257.44 319.93L258.03 320.48L258.61 321.06L269.25 332.2L269.32 332.03L269.39 331.86L269.47 331.69L269.55 331.52L269.63 331.35L269.71 331.18L269.79 331.02L269.87 330.85L269.96 330.68L270.04 330.52L270.13 330.36L270.22 330.19L270.31 330.03L270.4 329.87L270.5 329.71L270.59 329.55L270.69 329.39L270.79 329.23L270.89 329.08L270.99 328.92L271.09 328.76L271.2 328.61L271.3 328.46L271.41 328.3L271.52 328.15L271.63 328L271.74 327.85L271.85 327.7L271.96 327.55L272.08 327.41L272.2 327.26L272.31 327.11L272.43 326.97L272.56 326.83L272.68 326.68L272.8 326.54L272.93 326.4L273.05 326.26L273.18 326.13L273.31 325.99L273.89 325.41L274.48 324.86L275.09 324.35L275.71 323.86L276.35 323.4L277.01 322.97L277.67 322.57L278.35 322.2L279.05 321.86L279.75 321.55L280.46 321.27L281.18 321.02L281.91 320.8L282.64 320.6L283.38 320.44L284.12 320.31L284.87 320.21L285.62 320.13L286.37 320.09L287.13 320.07L287.88 320.09L288.63 320.13L289.38 320.21L290.13 320.31L290.88 320.44L291.61 320.6L292.35 320.8L293.08 321.02L293.8 321.27L294.51 321.55L295.21 321.86L295.9 322.2L296.58 322.57L297.25 322.97L297.9 323.4L298.54 323.86L299.17 324.35L299.78 324.86L300.37 325.41L300.94 325.99L329.68 356.1L331.45 354.65L333.26 353.29L335.11 352L336.99 350.8L338.9 349.67L340.85 348.62L342.82 347.66L344.82 346.77L346.84 345.96L348.88 345.23L350.95 344.59L353.03 344.02L355.12 343.53L357.23 343.12L359.35 342.79L361.47 342.54L363.6 342.37L365.74 342.28L367.87 342.27L370.01 342.34L372.14 342.49L374.27 342.72L376.39 343.03L378.5 343.42L380.6 343.89L382.68 344.43L384.75 345.06L386.8 345.77L388.82 346.55L390.83 347.42L392.81 348.37L394.76 349.39L396.68 350.5L398.57 351.69L400.42 352.95L402.24 354.3L404.02 355.72L405.76 357.22L407.46 358.81L409.11 360.47L448.11 401.33L448.27 401.51L448.43 401.69L448.58 401.89L448.73 402.08L448.86 402.28L448.99 402.49L449.1 402.7L449.21 402.92L449.32 403.13L449.41 403.35L449.5 403.58L449.58 403.81L449.65 404.04L449.71 404.27L449.76 404.5L449.81 404.74L449.84 404.97L449.87 405.21L449.89 405.45L449.91 405.69L449.91 405.93L449.91 406.17L449.9 406.41L449.88 406.65L449.85 406.89L449.81 407.13L449.77 407.36L449.72 407.6L449.66 407.83L449.59 408.06L449.51 408.29L449.42 408.51L449.33 408.74L449.23 408.95L449.12 409.17L449 409.38L448.87 409.59L448.74 409.79L448.59 409.99L448.44 410.19L448.26 410.4L448.07 410.59L447.88 410.78L447.68 410.96L447.48 411.13L447.27 411.29L447.05 411.44L446.83 411.58L446.61 411.7L446.38 411.82L446.15 411.93L445.91 412.03L445.67 412.12L445.43 412.19L445.19 412.26L444.94 412.32L444.69 412.36L444.44 412.4L444.19 412.42L443.94 412.44L443.69 412.45L443.44 412.44L443.18 412.42L442.93 412.4L442.68 412.36L442.43 412.32L442.19 412.26L441.94 412.19L441.7 412.11L441.46 412.02L441.22 411.93L440.99 411.82L440.76 411.7L440.53 411.57L440.31 411.43L440.1 411.27L439.89 411.11L439.68 410.94L439.48 410.76L439.29 410.56L400.29 369.71L398.89 368.31L397.46 366.98L395.98 365.72L394.47 364.53L392.93 363.41L391.35 362.37L389.74 361.4L388.11 360.5L386.44 359.67L384.76 358.92L383.05 358.23L381.33 357.62L379.58 357.08L377.82 356.62L376.05 356.22L374.27 355.9L372.48 355.65L370.68 355.47L368.88 355.36L367.07 355.32L365.27 355.36L363.47 355.47L361.67 355.65L359.88 355.9L358.1 356.22L356.33 356.62L354.57 357.08L352.82 357.62L351.1 358.23L349.39 358.92L347.71 359.67L346.04 360.5L344.41 361.4L342.8 362.37L341.22 363.41L339.68 364.53L338.17 365.72L336.69 366.98L335.25 368.31L333.86 369.71L315.05 389.41L314.93 389.54L314.81 389.66L314.68 389.77L314.55 389.88L314.42 389.99L314.29 390.09L314.15 390.19L314.02 390.28L313.88 390.38L313.74 390.46L313.6 390.54L313.46 390.62L313.31 390.7L313.17 390.76L313.02 390.83L312.87 390.89L312.72 390.95L312.57 391L312.42 391.05L312.27 391.1L312.12 391.14L311.96 391.17L311.81 391.21L311.65 391.23L311.5 391.26L311.34 391.28L311.18 391.3L311.03 391.31L310.87 391.32L310.71 391.32L310.56 391.32L310.4 391.31L310.24 391.31L310.09 391.29L309.93 391.28L309.77 391.26L309.62 391.23L309.46 391.2L309.31 391.17L309.15 391.13L260.32 390.75L260.27 390.75L259.98 390.75L259.69 390.77L259.41 390.8L259.13 390.84L258.86 390.89L258.58 390.96L258.31 391.03L258.05 391.12L257.79 391.22L257.54 391.32L257.29 391.44L257.04 391.56L256.8 391.7L256.57 391.84L256.34 392L256.12 392.16L255.9 392.33L255.69 392.51L255.49 392.7L255.3 392.9L255.11 393.1L254.93 393.31L254.75 393.53L254.59 393.75L254.43 393.98L254.28 394.22L254.14 394.46L254.01 394.71L253.89 394.97L253.78 395.23L253.67 395.5L253.58 395.77L253.49 396.04L253.42 396.33L253.36 396.61L253.3 396.9L253.26 397.19L253.23 397.49L253.21 397.79L253.2 398.09L253.21 398.4L253.22 398.7L253.25 399L253.29 399.29L253.34 399.58L253.4 399.87L253.47 400.15L253.55 400.43L253.64 400.71L253.74 400.98L253.85 401.24L253.97 401.5L254.1 401.75L254.24 402L254.38 402.24L254.54 402.47L254.7 402.7L254.87 402.92L255.05 403.13L255.24 403.34L255.43 403.54L255.63 403.73L255.84 403.91L256.06 404.09L256.28 404.25L256.51 404.41L256.74 404.56L256.98 404.7L257.22 404.83L257.47 404.95L257.73 405.06L257.99 405.15L258.25 405.24L258.52 405.32L258.8 405.39L259.07 405.44L259.35 405.49L259.64 405.52L259.93 405.54L260.22 405.55L310.51 405.95L310.77 405.95L311.02 405.97L311.27 406L311.52 406.04L311.77 406.09L312.01 406.15L312.24 406.22L312.48 406.3L312.71 406.38L312.93 406.48L313.15 406.58L313.37 406.7L313.58 406.82L313.79 406.95L313.99 407.09L314.18 407.24L314.37 407.39L314.56 407.55L314.73 407.72L314.9 407.89L315.07 408.08L315.23 408.26L315.38 408.46L315.52 408.66L315.66 408.87L315.79 409.08L315.91 409.3L316.02 409.52L316.13 409.75L316.23 409.98L316.31 410.22L316.39 410.46L316.47 410.71L316.53 410.96L316.58 411.21L316.62 411.47L316.66 411.73L316.68 411.99L316.69 412.26L316.7 412.53L316.69 412.79L316.67 413.06L316.65 413.32L316.61 413.58L316.56 413.84L316.51 414.09L316.44 414.34L316.37 414.58L316.29 414.82L316.19 415.05L316.09 415.29L315.99 415.51L315.87 415.73L315.75 415.95L315.62 416.16L315.48 416.36L315.33 416.56L315.18 416.75L315.02 416.94L314.85 417.11L314.68 417.29L314.5 417.45L314.32 417.61L314.13 417.76L313.93 417.91L313.73 418.04L313.53 418.17L313.31 418.29L313.1 418.4L312.88 418.5L312.65 418.6L312.42 418.68L312.19 418.76L311.95 418.82L311.71 418.88L311.47 418.93L311.22 418.96L310.97 418.99L310.72 419L310.46 419.01L310.42 419.01L260.12 418.61L259.36 418.59L258.6 418.54L257.86 418.46L257.12 418.35L256.39 418.21L255.67 418.04L254.96 417.84L254.26 417.62L253.57 417.37L252.89 417.1L252.23 416.8L251.58 416.47L250.94 416.13L250.32 415.75L249.71 415.36L249.12 414.94L248.54 414.5L247.98 414.04L247.43 413.56L246.9 413.06L246.39 412.54L245.9 412L245.43 411.44L244.98 410.86L244.54 410.27L244.13 409.66L243.74 409.03L243.37 408.39L243.02 407.73L242.69 407.06L242.39 406.38L242.11 405.68L241.85 404.97L241.62 404.25L241.42 403.51L241.24 402.77L241.09 402.01L240.96 401.25L240.86 400.47L240.79 399.69L240.11 398.97L212.17 369.71L211.98 369.51L211.78 369.33L211.58 369.15L211.37 368.98L211.15 368.82L210.93 368.66L210.71 368.52L210.48 368.38L210.24 368.25L210 368.13L209.76 368.02L209.52 367.92L209.27 367.82L209.02 367.73L208.77 367.66L208.51 367.59L208.25 367.53L208 367.48L207.74 367.44L207.48 367.41L207.21 367.39L206.95 367.38L206.69 367.37L206.43 367.38L206.17 367.4L205.91 367.42L205.65 367.46L205.39 367.51L205.14 367.56L204.88 367.63L204.63 367.71L204.38 367.79L204.13 367.89L203.89 368L203.65 368.11L203.42 368.24L203.18 368.38L202.96 368.53L202.74 368.69L202.52 368.87L202.28 369.07L202.05 369.29L201.83 369.51L201.63 369.75L201.43 369.99L201.25 370.24L201.08 370.49L200.92 370.75L200.77 371.02L200.63 371.3L200.5 371.58L200.39 371.86L200.29 372.15L200.19 372.44L200.11 372.73L200.05 373.03L199.99 373.33L199.94 373.63L199.91 373.94L199.89 374.24L199.88 374.55L199.88 374.85L199.89 375.16L199.92 375.46L199.95 375.77L200 376.07L200.06 376.37L200.13 376.67L200.21 376.97L200.31 377.26L200.42 377.55L200.53 377.83L200.67 378.11L200.81 378.38L200.96 378.65L201.13 378.92L201.31 379.17L201.5 379.42L201.7 379.66L201.91 379.9L211.58 390.03L211.76 390.22L211.93 390.42L212.08 390.62L212.23 390.83L212.37 391.05L212.5 391.26L212.63 391.49L212.74 391.72L212.84 391.95L212.94 392.18L213.02 392.42L213.1 392.66L213.17 392.9L213.22 393.15L213.27 393.39L213.31 393.64L213.35 393.89L213.37 394.14L213.38 394.4L213.39 394.65L213.38 394.9L213.37 395.15L213.35 395.4L213.31 395.65L213.27 395.9L213.22 396.15L213.17 396.39L213.1 396.64L213.02 396.88L212.94 397.12L212.84 397.35L212.74 397.58L212.63 397.81L212.5 398.03L212.37 398.25L212.23 398.46L212.08 398.67L211.93 398.88L211.76 399.07L211.58 399.27L211.4 399.45L211.21 399.62L211.02 399.79L210.82 399.95L210.61 400.09L210.41 400.23L210.19 400.36L209.98 400.47L209.76 400.58L209.53 400.68L209.3 400.77L209.07 400.85L208.84 400.92L208.61 400.98L208.37 401.04L208.14 401.08L207.9 401.11L207.66 401.13L207.42 401.15L207.18 401.15L206.94 401.15L206.7 401.14L206.46 401.11L206.22 401.08L205.98 401.04L205.74 400.98L205.51 400.92L205.28 400.85L205.05 400.77L204.82 400.68L204.6 400.58L204.38 400.47L204.16 400.36L203.95 400.23L203.74 400.09L203.53 399.95L203.33 399.79L203.14 399.63L202.95 399.45L202.77 399.27L193.1 389.14L192.53 388.51L191.99 387.87L191.48 387.21L191 386.53L190.55 385.84L190.14 385.13L189.75 384.4L189.39 383.67L189.07 382.92L188.77 382.15L188.51 381.38L188.27 380.6L188.06 379.82L187.89 379.02L187.74 378.22L187.63 377.42L187.54 376.61L187.49 375.8L187.46 374.98L187.46 374.17L187.5 373.36L187.56 372.55L187.66 371.74L187.78 370.94L187.93 370.14L188.12 369.35L188.33 368.57L188.57 367.79L188.84 367.02L189.14 366.27L189.47 365.52L189.83 364.79L190.22 364.07L190.64 363.37L191.09 362.68L191.57 362.01L192.08 361.36L192.61 360.72L193.18 360.11L193.77 359.52L193.89 359.4L194.02 359.29L194.14 359.18L194.26 359.07L194.38 358.96L194.51 358.85L194.63 358.75L194.76 358.64L194.88 358.54L195.01 358.44L195.13 358.34L195.26 358.24L195.39 358.14L195.52 358.04L195.65 357.95L195.78 357.85L195.91 357.76L196.04 357.67L196.17 357.58L196.3 357.49L196.44 357.4L196.57 357.31L196.7 357.23L196.84 357.14L196.97 357.06L197.11 356.98L197.24 356.9L197.38 356.82L197.52 356.74L197.65 356.66L197.79 356.59L197.93 356.51L198.07 356.44L198.21 356.37L198.35 356.3L198.48 356.23L198.62 356.16L198.77 356.09L198.91 356.02L199.05 355.96L193.36 350L192.81 349.4L192.29 348.78L191.79 348.14L191.33 347.49L190.89 346.82L190.48 346.13L190.1 345.43L189.75 344.72L189.42 344L189.13 343.26L188.86 342.52L188.62 341.76L188.41 341L188.22 340.23L188.07 339.46L187.94 338.68L187.84 337.9L187.77 337.11L187.73 336.32L187.71 335.53L187.73 334.74L187.77 333.96L187.84 333.17L187.94 332.39L188.07 331.61L188.22 330.83L188.41 330.06L188.62 329.3L188.86 328.55L189.13 327.8L189.42 327.07L189.75 326.34L190.1 325.63L190.48 324.93L190.89 324.25L191.33 323.58L191.79 322.92L192.29 322.28L192.81 321.66L193.36 321.06L193.94 320.48L194.54 319.93L195.15 319.4L195.78 318.91L196.42 318.44L197.08 318.01L197.75 317.61L198.43 317.23L199.12 316.89L199.82 316.57L200.53 316.29L201.25 316.04L201.98 315.81L202.71 315.62L203.44 315.45L204.18 315.32L204.93 315.21L205.68 315.14L206.43 315.09L207.18 315.08L207.93 315.09L208.68 315.14L209.42 315.21L210.17 315.32L210.91 315.45L211.65 315.62L212.38 315.81L213.1 316.04L213.82 316.29L214.53 316.57L215.23 316.89L215.92 317.23L216.6 317.61L217.27 318.01L217.93 318.44L218.57 318.91L219.2 319.4L219.81 319.93L220.41 320.48L220.99 321.06L226.92 327.27L226.99 327.1L227.07 326.93L227.14 326.76L227.22 326.59L227.3 326.42L227.38 326.26L227.46 326.09L227.55 325.92L227.63 325.76L227.72 325.59L227.81 325.43L227.89 325.27L227.99 325.11L228.08 324.94L228.17 324.78L228.27 324.62L228.36 324.46L228.46 324.31L228.56 324.15L228.66 323.99L228.77 323.84L228.87 323.68L228.97 323.53L229.08 323.38L229.19 323.22L229.3 323.07L229.41 322.92L229.52 322.77L229.64 322.63L229.75 322.48L229.87 322.33L229.99 322.19L230.11 322.04L230.23 321.9L230.35 321.76L230.48 321.62L230.6 321.48L230.73 321.34L230.86 321.2L230.99 321.06L231.57 320.48L232.16 319.93L232.78 319.4L233.4 318.91L234.05 318.44L234.7 318.01L235.37 317.61L236.05 317.23L236.74 316.89L237.45 316.57L238.16 316.29L238.87 316.04L239.6 315.81L240.33 315.62L241.07 315.45L241.81 315.32L242.55 315.21L243.3 315.14L244.05 315.09L244.8 315.08L245.55 315.09L246.3 315.14ZM206.68 328.15L206.36 328.18L206.03 328.23L205.71 328.3L205.38 328.38L205.06 328.47L204.75 328.58L204.44 328.71L204.13 328.85L203.83 329.01L203.54 329.19L203.25 329.38L202.97 329.58L202.7 329.81L202.44 330.04L202.18 330.3L201.94 330.56L201.71 330.84L201.5 331.12L201.31 331.41L201.13 331.71L200.96 332.02L200.81 332.34L200.68 332.66L200.56 332.98L200.45 333.31L200.36 333.65L200.29 333.98L200.23 334.33L200.18 334.67L200.15 335.01L200.14 335.36L200.14 335.71L200.15 336.05L200.18 336.4L200.23 336.74L200.29 337.08L200.36 337.42L200.45 337.75L200.56 338.08L200.68 338.41L200.81 338.73L200.96 339.04L201.13 339.35L201.31 339.65L201.5 339.94L201.71 340.23L201.94 340.5L202.18 340.77L244.91 385.53L245.19 385.16L245.48 384.8L245.78 384.44L246.08 384.1L246.4 383.76L246.72 383.43L247.04 383.11L247.38 382.79L247.72 382.48L248.07 382.19L248.42 381.89L248.78 381.61L249.15 381.34L249.52 381.07L249.9 380.82L250.28 380.57L250.67 380.33L251.07 380.1L251.47 379.88L251.88 379.67L252.29 379.47L252.71 379.28L253.13 379.1L253.56 378.93L253.99 378.77L254.43 378.62L254.87 378.48L255.31 378.36L255.76 378.24L256.21 378.13L256.67 378.04L257.13 377.95L257.6 377.88L212.17 330.3L211.92 330.04L211.65 329.81L211.38 329.58L211.1 329.38L210.81 329.19L210.52 329.01L210.22 328.85L209.91 328.71L209.6 328.58L209.29 328.47L208.97 328.38L208.65 328.3L208.32 328.23L208 328.18L207.67 328.15L207.34 328.14L207.01 328.14L206.68 328.15ZM244.27 328.16L243.93 328.19L243.58 328.25L243.23 328.32L242.89 328.41L242.55 328.52L242.22 328.64L241.89 328.79L241.57 328.95L241.26 329.13L240.95 329.33L240.65 329.54L240.36 329.78L240.07 330.03L239.8 330.3L239.55 330.58L239.31 330.87L239.09 331.18L238.88 331.49L238.7 331.81L238.53 332.14L238.37 332.48L238.24 332.82L238.12 333.17L238.02 333.53L237.93 333.89L237.86 334.25L237.81 334.61L237.78 334.98L237.76 335.35L237.76 335.72L237.78 336.09L237.81 336.45L237.86 336.82L237.93 337.18L238.02 337.54L238.12 337.89L238.24 338.24L238.37 338.59L238.53 338.92L238.7 339.25L238.88 339.58L239.09 339.89L239.31 340.19L239.55 340.48L239.8 340.77L274.78 377.41L274.79 377.41L274.8 377.43L274.81 377.44L274.83 377.46L274.84 377.47L274.85 377.48L274.86 377.49L274.87 377.5L274.88 377.51L274.89 377.52L274.91 377.55L274.92 377.56L274.93 377.57L274.95 377.6L274.98 377.63L274.99 377.64L275 377.66L275.01 377.67L275.02 377.69L275.04 377.7L275.05 377.72L275.06 377.73L275.08 377.75L275.1 377.78L275.12 377.8L295.29 377.96L273.31 354.93L273.31 354.93L273.3 354.92L249.8 330.3L249.52 330.03L249.24 329.78L248.95 329.54L248.65 329.33L248.34 329.13L248.03 328.95L247.71 328.79L247.38 328.64L247.04 328.52L246.71 328.41L246.36 328.32L246.02 328.25L245.67 328.19L245.32 328.16L244.97 328.14L244.62 328.14L244.27 328.16ZM286.13 333.21L285.45 333.36L284.78 333.57L284.14 333.85L283.52 334.19L282.93 334.59L282.39 335.05L281.89 335.56L281.43 336.12L281.04 336.74L280.7 337.4L280.43 338.1L280.23 338.85L280.1 339.63L280.06 340.46L280.06 340.72L280.08 340.97L280.1 341.23L280.12 341.48L280.16 341.73L280.21 341.97L280.26 342.22L280.32 342.46L280.39 342.7L280.46 342.94L280.55 343.17L280.64 343.4L280.74 343.63L280.84 343.86L280.96 344.08L281.08 344.29L281.21 344.51L281.34 344.71L281.48 344.92L281.63 345.12L281.79 345.31L281.95 345.5L282.12 345.69L310.64 375.56L320.63 365.09L292.12 335.23L291.53 334.67L290.92 334.21L290.27 333.83L289.6 333.53L288.92 333.32L288.22 333.18L287.52 333.12L286.82 333.13L286.13 333.21ZM328.16 287.4L328.88 287.64L329.56 287.97L330.19 288.37L330.77 288.85L331.29 289.4L331.75 290L332.13 290.66L332.44 291.37L332.67 292.12L332.81 292.91L332.86 293.73L332.86 307.67L332.81 308.49L332.67 309.27L332.44 310.03L332.13 310.74L331.75 311.4L331.29 312L330.77 312.55L330.19 313.03L329.56 313.43L328.88 313.76L328.16 314L327.41 314.15L326.63 314.2L325.84 314.15L325.09 314L324.37 313.76L323.7 313.43L323.06 313.03L322.49 312.55L321.97 312L321.51 311.4L321.12 310.74L320.81 310.03L320.58 309.27L320.44 308.49L320.39 307.67L320.39 293.73L320.44 292.91L320.58 292.13L320.81 291.37L321.12 290.66L321.51 290L321.97 289.4L322.49 288.85L323.06 288.37L323.7 287.97L324.37 287.64L325.09 287.4L325.84 287.25L326.63 287.2L327.41 287.25L328.16 287.4ZM354.49 279.87L355.2 280.07L355.88 280.35L356.53 280.72L357.14 281.18L357.7 281.71L358.2 282.32L358.63 283L365.28 295.07L365.6 295.74L365.84 296.43L366 297.14L366.09 297.87L366.09 298.59L366.03 299.31L365.89 300.02L365.67 300.7L365.39 301.36L365.04 301.99L364.62 302.58L364.13 303.11L363.58 303.59L362.88 304.06L362.13 304.42L361.37 304.66L360.58 304.8L359.79 304.84L359 304.77L358.23 304.6L357.48 304.33L356.77 303.97L356.1 303.51L355.49 302.96L354.95 302.32L354.48 301.6L347.83 289.53L347.48 288.8L347.23 288.04L347.07 287.27L347 286.49L347.02 285.72L347.12 284.95L347.31 284.21L347.59 283.49L347.94 282.81L348.37 282.17L348.88 281.59L349.46 281.06L350.11 280.61L350.81 280.24L351.54 279.98L352.27 279.81L353.02 279.74L353.76 279.76L354.49 279.87ZM301.72 279.98L302.44 280.24L303.14 280.61L303.79 281.06L304.38 281.59L304.88 282.17L305.31 282.81L305.67 283.49L305.94 284.21L306.13 284.95L306.24 285.72L306.26 286.49L306.19 287.27L306.03 288.04L305.77 288.8L305.42 289.53L298.77 301.6L298.31 302.32L297.76 302.96L297.15 303.51L296.49 303.97L295.78 304.33L295.03 304.6L294.25 304.77L293.47 304.84L292.67 304.8L291.89 304.66L291.12 304.42L290.38 304.06L289.67 303.59L289.12 303.11L288.63 302.58L288.21 301.99L287.86 301.36L287.58 300.7L287.37 300.02L287.23 299.31L287.16 298.59L287.17 297.87L287.25 297.14L287.41 296.43L287.65 295.74L287.97 295.07L294.62 283L295.06 282.32L295.56 281.71L296.11 281.18L296.72 280.72L297.37 280.35L298.06 280.07L298.77 279.87L299.5 279.76L300.24 279.74L300.98 279.81L301.72 279.98ZM329.86 196.77L331.45 196.94L333.02 197.18L334.58 197.48L336.11 197.84L337.61 198.26L339.1 198.75L340.55 199.29L341.98 199.89L343.39 200.55L344.76 201.26L346.1 202.02L347.41 202.84L348.69 203.71L349.93 204.63L351.14 205.59L352.31 206.6L353.44 207.66L354.54 208.76L355.59 209.91L356.6 211.09L357.57 212.32L358.49 213.59L359.36 214.89L360.19 216.23L360.97 217.6L361.7 219.01L362.38 220.44L363.01 221.91L363.58 223.41L364.1 224.94L364.56 226.49L364.97 228.07L365.31 229.67L365.6 231.3L365.82 232.94L365.99 234.61L366.08 236.3L366.12 238L366.08 239.7L365.99 241.39L365.82 243.05L365.6 244.7L365.31 246.32L364.97 247.93L364.56 249.51L364.1 251.06L363.58 252.59L363.01 254.08L362.38 255.55L361.7 256.99L360.97 258.4L360.19 259.77L359.36 261.11L358.49 262.41L357.57 263.68L356.6 264.9L355.59 266.09L354.54 267.23L353.44 268.34L352.31 269.39L351.14 270.41L349.93 271.37L348.69 272.29L347.41 273.16L346.1 273.97L344.76 274.74L343.39 275.45L341.98 276.11L340.55 276.71L339.1 277.25L337.61 277.74L336.11 278.16L334.58 278.52L333.02 278.82L331.45 279.06L329.86 279.23L328.25 279.33L326.63 279.36L325 279.33L323.39 279.23L321.8 279.06L320.23 278.82L318.68 278.52L317.15 278.16L315.64 277.74L314.16 277.25L312.7 276.71L311.27 276.11L309.87 275.45L308.49 274.74L307.15 273.97L305.84 273.16L304.56 272.29L303.32 271.37L302.11 270.41L300.94 269.39L299.81 268.34L298.72 267.23L297.67 266.09L296.66 264.9L295.69 263.68L294.77 262.41L293.89 261.11L293.06 259.77L292.28 258.4L291.55 256.99L290.87 255.55L290.25 254.08L289.67 252.59L289.15 251.06L288.69 249.51L288.29 247.93L287.94 246.32L287.66 244.7L287.43 243.05L287.27 241.39L287.17 239.7L287.14 238L287.17 236.3L287.27 234.61L287.43 232.94L287.66 231.3L287.94 229.67L288.29 228.07L288.69 226.49L289.15 224.94L289.67 223.41L290.25 221.91L290.87 220.44L291.55 219.01L292.28 217.6L293.06 216.23L293.89 214.89L294.77 213.59L295.69 212.32L296.66 211.09L297.67 209.91L298.72 208.76L299.81 207.66L300.94 206.6L302.11 205.59L303.32 204.63L304.56 203.71L305.84 202.84L307.15 202.02L308.5 201.26L309.87 200.55L311.27 199.89L312.7 199.29L314.16 198.75L315.64 198.26L317.15 197.84L318.68 197.48L320.23 197.18L321.8 196.94L323.39 196.77L325 196.67L326.63 196.63L328.25 196.67L329.86 196.77ZM281.8 259.47L282.51 259.67L283.2 259.95L283.85 260.32L284.46 260.78L285.02 261.31L285.51 261.92L285.95 262.6L286.3 263.34L286.55 264.09L286.71 264.86L286.78 265.64L286.76 266.42L286.66 267.18L286.47 267.93L286.19 268.64L285.84 269.33L285.41 269.96L284.9 270.55L284.32 271.07L283.67 271.52L272.15 278.49L271.4 278.88L270.62 279.14L269.83 279.3L269.03 279.35L268.24 279.29L267.47 279.13L266.72 278.87L266 278.51L265.33 278.07L264.72 277.54L264.17 276.92L263.7 276.22L263.32 275.45L263.07 274.75L262.9 274.03L262.82 273.3L262.81 272.57L262.88 271.85L263.03 271.15L263.24 270.46L263.53 269.8L263.88 269.18L264.29 268.6L264.77 268.07L265.31 267.59L265.91 267.18L277.43 260.21L278.13 259.84L278.86 259.58L279.59 259.41L280.33 259.34L281.07 259.36L281.8 259.47ZM374.4 259.58L375.12 259.84L375.82 260.21L387.34 267.18L387.94 267.59L388.48 268.06L388.96 268.6L389.38 269.18L389.73 269.8L390.01 270.46L390.23 271.15L390.37 271.85L390.44 272.57L390.44 273.3L390.35 274.03L390.19 274.74L389.94 275.45L389.55 276.22L389.08 276.92L388.53 277.54L387.92 278.07L387.25 278.51L386.53 278.87L385.78 279.13L385.01 279.29L384.22 279.34L383.42 279.3L382.63 279.14L381.86 278.87L381.11 278.49L369.59 271.52L368.93 271.07L368.35 270.54L367.85 269.96L367.41 269.32L367.06 268.64L366.79 267.93L366.6 267.18L366.49 266.42L366.47 265.64L366.54 264.86L366.7 264.09L366.96 263.33L367.31 262.6L367.74 261.92L368.24 261.31L368.8 260.77L369.4 260.32L370.05 259.95L370.74 259.67L371.45 259.47L372.18 259.36L372.92 259.34L373.66 259.41L374.4 259.58ZM324.03 209.83L322.75 209.99L321.5 210.21L320.26 210.49L319.05 210.83L317.86 211.23L316.69 211.68L315.55 212.18L314.44 212.74L313.36 213.35L312.3 214.01L311.28 214.72L310.29 215.47L309.33 216.27L308.41 217.11L307.53 218L306.69 218.92L305.88 219.88L305.12 220.88L304.4 221.92L303.73 222.99L303.1 224.1L302.52 225.23L301.98 226.4L301.5 227.59L301.07 228.82L300.69 230.06L300.36 231.33L300.1 232.63L299.88 233.94L299.73 235.28L299.64 236.63L299.61 238L299.64 239.37L299.73 240.72L299.88 242.06L300.1 243.37L300.36 244.66L300.69 245.94L301.07 247.18L301.5 248.4L301.98 249.6L302.52 250.76L303.1 251.9L303.73 253.01L304.4 254.08L305.12 255.11L305.88 256.11L306.69 257.08L307.53 258L308.41 258.89L309.33 259.73L310.29 260.53L311.28 261.28L312.3 261.99L313.36 262.65L314.44 263.26L315.55 263.81L316.69 264.32L317.86 264.77L319.05 265.17L320.26 265.51L321.5 265.79L322.75 266.01L324.03 266.17L325.32 266.27L326.63 266.3L327.93 266.27L329.23 266.17L330.5 266.01L331.75 265.79L332.99 265.51L334.2 265.17L335.39 264.77L336.56 264.32L337.7 263.81L338.81 263.26L339.9 262.65L340.95 261.99L341.98 261.28L342.97 260.53L343.92 259.73L344.84 258.89L345.72 258L346.57 257.08L347.37 256.11L348.13 255.11L348.85 254.08L349.53 253.01L350.16 251.9L350.74 250.76L351.27 249.6L351.75 248.4L352.19 247.18L352.57 245.94L352.89 244.66L353.16 243.37L353.37 242.06L353.52 240.72L353.62 239.37L353.65 238L353.62 236.63L353.52 235.28L353.37 233.94L353.16 232.63L352.89 231.33L352.57 230.06L352.19 228.82L351.76 227.59L351.27 226.4L350.74 225.23L350.16 224.1L349.53 222.99L348.85 221.92L348.13 220.88L347.37 219.88L346.57 218.92L345.72 218L344.84 217.11L343.92 216.27L342.97 215.47L341.98 214.72L340.95 214.01L339.9 213.35L338.81 212.74L337.7 212.18L336.56 211.68L335.39 211.23L334.2 210.83L332.99 210.49L331.75 210.21L330.5 209.99L329.23 209.83L327.93 209.73L326.63 209.7L325.32 209.73L324.03 209.83ZM274.96 231.67L275.67 231.91L276.35 232.23L276.98 232.64L277.56 233.12L278.08 233.66L278.54 234.27L278.92 234.93L279.24 235.64L279.46 236.39L279.61 237.18L279.66 238L279.61 238.82L279.46 239.61L279.24 240.36L278.92 241.07L278.54 241.73L278.08 242.34L277.56 242.88L276.98 243.36L276.35 243.77L275.67 244.09L274.96 244.33L274.2 244.48L273.42 244.53L260.12 244.53L259.34 244.48L258.58 244.33L257.86 244.09L257.19 243.77L256.56 243.36L255.98 242.88L255.46 242.34L255 241.73L254.61 241.07L254.3 240.36L254.07 239.61L253.93 238.82L253.88 238L253.93 237.18L254.07 236.39L254.3 235.64L254.61 234.93L255 234.27L255.46 233.66L255.98 233.12L256.56 232.64L257.19 232.23L257.86 231.91L258.58 231.67L259.34 231.52L260.12 231.47L273.42 231.47L274.2 231.52L274.96 231.67ZM394.67 231.67L395.39 231.91L396.07 232.23L396.7 232.64L397.28 233.12L397.8 233.66L398.25 234.27L398.64 234.93L398.95 235.64L399.18 236.39L399.32 237.18L399.37 238L399.32 238.82L399.18 239.61L398.95 240.36L398.64 241.07L398.25 241.73L397.8 242.34L397.28 242.88L396.7 243.36L396.07 243.77L395.39 244.09L394.67 244.33L393.92 244.48L393.14 244.53L379.83 244.53L379.05 244.48L378.3 244.33L377.58 244.09L376.9 243.77L376.27 243.36L375.69 242.88L375.17 242.34L374.72 241.73L374.33 241.07L374.02 240.36L373.79 239.61L373.65 238.82L373.6 238L373.65 237.18L373.79 236.39L374.02 235.64L374.33 234.93L374.72 234.27L375.17 233.66L375.69 233.12L376.27 232.64L376.9 232.23L377.58 231.91L378.3 231.67L379.05 231.52L379.83 231.47L393.14 231.47L393.92 231.52L394.67 231.67ZM385.48 196.77L386.19 196.97L386.88 197.25L387.53 197.62L388.13 198.08L388.69 198.61L389.19 199.22L389.62 199.9L389.97 200.64L390.23 201.39L390.39 202.17L390.46 202.94L390.44 203.72L390.33 204.48L390.14 205.23L389.87 205.94L389.52 206.63L389.08 207.26L388.58 207.85L388 208.37L387.34 208.82L375.82 215.79L375.07 216.18L374.3 216.44L373.51 216.6L372.71 216.65L371.92 216.59L371.15 216.43L370.39 216.17L369.68 215.81L369.01 215.37L368.4 214.84L367.85 214.22L367.38 213.52L366.99 212.75L366.74 212.05L366.58 211.33L366.49 210.6L366.49 209.87L366.56 209.15L366.7 208.45L366.92 207.76L367.2 207.1L367.55 206.48L367.97 205.9L368.45 205.37L368.99 204.89L369.59 204.48L381.11 197.51L381.81 197.14L382.53 196.88L383.27 196.71L384.01 196.64L384.75 196.66L385.48 196.77ZM270.72 196.88L271.45 197.14L272.15 197.51L283.67 204.48L284.26 204.89L284.8 205.36L285.28 205.9L285.7 206.48L286.05 207.1L286.34 207.76L286.55 208.45L286.7 209.15L286.77 209.87L286.76 210.6L286.68 211.32L286.51 212.04L286.26 212.75L285.88 213.52L285.4 214.22L284.86 214.83L284.24 215.37L283.57 215.81L282.86 216.17L282.11 216.42L281.33 216.59L280.54 216.64L279.75 216.6L278.96 216.44L278.18 216.17L277.43 215.79L265.91 208.82L265.26 208.37L264.68 207.84L264.17 207.26L263.74 206.62L263.39 205.94L263.11 205.22L262.92 204.48L262.82 203.72L262.8 202.94L262.87 202.16L263.03 201.39L263.28 200.63L263.63 199.9L264.06 199.22L264.56 198.61L265.12 198.07L265.73 197.62L266.38 197.25L267.06 196.97L267.77 196.77L268.5 196.66L269.24 196.64L269.99 196.71L270.72 196.88ZM294.63 171.27L295.34 171.47L296.02 171.75L296.67 172.12L297.28 172.58L297.84 173.11L298.34 173.72L298.77 174.4L305.42 186.47L305.87 187.47L306.14 188.5L306.24 189.54L306.17 190.57L305.96 191.56L305.61 192.51L305.12 193.4L304.52 194.2L303.8 194.89L302.98 195.46L302.08 195.9L301.09 196.17L300.03 196.26L299.53 196.24L299.04 196.18L298.56 196.08L298.08 195.94L297.62 195.76L297.17 195.54L296.74 195.28L296.32 194.99L295.93 194.66L295.56 194.3L295.22 193.9L294.91 193.47L294.62 193L287.97 180.93L287.62 180.2L287.37 179.44L287.21 178.67L287.14 177.89L287.16 177.12L287.26 176.35L287.46 175.61L287.73 174.89L288.08 174.21L288.51 173.57L289.02 172.99L289.6 172.46L290.25 172.01L290.96 171.64L291.68 171.38L292.42 171.21L293.16 171.14L293.9 171.16L294.63 171.27ZM361.57 171.38L362.3 171.64L363 172.01L363.65 172.46L364.23 172.99L364.74 173.57L365.17 174.21L365.52 174.89L365.8 175.61L365.99 176.35L366.09 177.12L366.11 177.89L366.04 178.67L365.88 179.44L365.63 180.2L365.28 180.93L358.63 193L358.35 193.47L358.03 193.9L357.69 194.3L357.32 194.66L356.93 194.99L356.52 195.28L356.08 195.54L355.63 195.76L355.17 195.94L354.7 196.08L354.21 196.18L353.72 196.24L353.22 196.26L352.16 196.17L351.18 195.9L350.27 195.46L349.45 194.89L348.74 194.2L348.13 193.4L347.65 192.51L347.29 191.56L347.08 190.56L347.02 189.54L347.11 188.5L347.38 187.47L347.83 186.47L354.48 174.4L354.91 173.72L355.41 173.11L355.97 172.58L356.58 172.12L357.23 171.75L357.91 171.47L358.62 171.27L359.35 171.16L360.09 171.14L360.84 171.21L361.57 171.38ZM328.16 162L328.88 162.24L329.56 162.57L330.19 162.97L330.77 163.45L331.29 163.99L331.75 164.6L332.13 165.26L332.44 165.97L332.67 166.72L332.81 167.51L332.86 168.33L332.86 182.27L332.81 183.08L332.67 183.87L332.44 184.63L332.13 185.34L331.75 186L331.29 186.6L330.77 187.15L330.19 187.63L329.56 188.03L328.88 188.36L328.16 188.6L327.41 188.75L326.63 188.8L325.84 188.75L325.09 188.6L324.37 188.36L323.7 188.03L323.06 187.63L322.49 187.15L321.97 186.6L321.51 186L321.12 185.34L320.81 184.63L320.58 183.87L320.44 183.08L320.39 182.27L320.39 168.33L320.44 167.51L320.58 166.72L320.81 165.97L321.12 165.26L321.51 164.6L321.97 163.99L322.49 163.45L323.06 162.97L323.7 162.57L324.37 162.24L325.09 162L325.84 161.85L326.63 161.8L327.41 161.85L328.16 162Z" id="c3F8zafHZ2"></path></defs><g><g><g><g><filter id="shadow6244358" x="27.95" y="59.41" width="590.43" height="576.14" filterUnits="userSpaceOnUse" primitiveUnits="userSpaceOnUse"><feFlood></feFlood><feComposite in2="SourceAlpha" operator="in"></feComposite><feGaussianBlur stdDeviation="1"></feGaussianBlur><feOffset dx="1" dy="1" result="afterOffset"></feOffset><feFlood flood-color="#000000" flood-opacity="0.5"></feFlood><feComposite in2="afterOffset" operator="in"></feComposite><feMorphology operator="dilate" radius="1"></feMorphology><feComposite in2="SourceAlpha" operator="out"></feComposite></filter><path d="M608.38 346.98C608.38 500.73 480.36 625.55 322.67 625.55C164.98 625.55 36.95 500.73 36.95 346.98C36.95 193.23 164.98 68.41 322.67 68.41C480.36 68.41 608.38 193.23 608.38 346.98Z" id="a10qgOUXp0" fill="white" fill-opacity="1" filter="url(#shadow6244358)"></path></g><use xlink:href="#d31tZn266d" opacity="1" fill="#ffffff" fill-opacity="0"></use><g><use xlink:href="#d31tZn266d" opacity="1" fill-opacity="0" stroke="#ffffff" stroke-width="30" stroke-opacity="1"></use></g></g><g><use xlink:href="#c3F8zafHZ2" opacity="1" fill="#ffffff" fill-opacity="1"></use><g><use xlink:href="#c3F8zafHZ2" opacity="1" fill-opacity="0" stroke="#000000" stroke-width="1" stroke-opacity="0"></use></g></g></g></g></svg>