<?xml version="1.0" encoding="UTF-8" standalone="no"?>
<!DOCTYPE svg PUBLIC "-//W3C//DTD SVG 1.1//EN" "http://www.w3.org/Graphics/SVG/1.1/DTD/svg11.dtd">
<svg version="1.1" xmlns="http://www.w3.org/2000/svg" xmlns:xlink="http://www.w3.org/1999/xlink" preserveAspectRatio="xMidYMid meet" viewBox="0 0 640 640" width="640" height="640"><defs><path d="M608.38 346.98C608.38 500.73 480.36 625.55 322.67 625.55C164.98 625.55 36.95 500.73 36.95 346.98C36.95 193.23 164.98 68.41 322.67 68.41C480.36 68.41 608.38 193.23 608.38 346.98Z" id="bwSnpJkvB"></path><path d="M374.81 380.78C374.81 371.75 374.81 366.74 374.81 365.74C399.97 348.87 416.58 320.18 416.58 287.67C416.58 285.15 416.58 264.95 416.58 262.42C416.58 261.76 416.55 261.09 416.53 260.42C417.3 260.26 421.13 259.47 428.03 258.05C427.29 250.86 426.89 246.87 426.81 246.07C424.2 220.49 414.95 195.24 401.41 176.8C394.8 167.79 387.17 160.28 378.66 154.3C375.9 125.83 351.84 103.51 322.67 103.51C293.49 103.51 269.43 125.83 266.67 154.3C258.16 160.28 250.53 167.79 243.93 176.8C230.39 195.24 221.13 220.49 218.53 246.07C218.45 246.87 218.04 250.86 217.31 258.05C224.2 259.47 228.03 260.26 228.8 260.42C228.79 261.09 228.76 261.76 228.76 262.42C228.76 264.95 228.76 285.15 228.76 287.67C228.76 320.18 245.36 348.87 270.53 365.74C270.53 366.74 270.53 371.75 270.53 380.78C262.15 380.78 257.49 380.78 256.56 380.78C214.59 380.78 180.45 414.92 180.45 456.88C180.45 463.68 180.45 497.65 180.45 558.8L464.88 558.8C464.88 497.65 464.88 463.68 464.88 456.88C464.88 414.92 430.74 380.78 388.78 380.78C386.91 380.78 382.26 380.78 374.81 380.78ZM344.22 139.53C337.34 138.11 330.15 137.39 322.67 137.39C315.19 137.39 307.99 138.11 301.11 139.53C306.52 133.78 314.18 130.18 322.67 130.18C331.16 130.18 338.82 133.78 344.22 139.53ZM265.43 192.58C279.32 173.66 298.58 164.07 322.67 164.07C346.76 164.07 366.01 173.66 379.9 192.58C390.65 207.23 395.83 224.05 398.32 236.23C372.01 238.68 346.38 231.86 331.91 217.95C331.29 217.35 328.21 214.39 322.67 209.06C317.12 214.39 314.04 217.35 313.42 217.95C298.95 231.86 273.33 238.67 247.01 236.23C249.5 224.05 254.69 207.23 265.43 192.58ZM255.44 263.39C280.83 263.78 304.94 257.18 322.67 244.76C339.9 256.84 363.16 263.41 387.77 263.41C388.48 263.41 389.19 263.39 389.9 263.38C389.9 265.81 389.9 285.24 389.9 287.67C389.9 324.75 359.74 354.9 322.67 354.9C285.6 354.9 255.44 324.74 255.44 287.67C255.44 282.82 255.44 265.81 255.44 263.39ZM348.13 390.02L322.67 427.53L297.2 390.02C297.2 382.85 297.2 378.87 297.2 378.07C305.31 380.36 313.85 381.58 322.67 381.58C331.49 381.58 340.03 380.36 348.13 378.07C348.13 379.66 348.13 383.65 348.13 390.02ZM207.13 456.88C207.13 429.63 229.3 407.46 256.56 407.46C257.91 407.46 264.65 407.46 276.8 407.46L361.43 532.13L207.13 532.13C207.13 486.98 207.13 461.9 207.13 456.88ZM393.67 532.13L338.79 451.28L368.54 407.46C380.68 407.46 387.43 407.46 388.78 407.46C416.03 407.46 438.2 429.63 438.2 456.88C438.2 461.9 438.2 486.98 438.2 532.13L393.67 532.13Z" id="a6f4MxsQA"></path><path d="M349.58 282.51C343.14 282.51 337.93 287.73 337.93 294.16C337.93 300.6 343.14 305.81 349.58 305.81C356.01 305.81 361.23 300.6 361.23 294.16C361.23 287.73 356.01 282.51 349.58 282.51Z" id="b6boUWyw5I"></path><path d="M295.76 282.51C289.32 282.51 284.11 287.73 284.11 294.16C284.11 300.6 289.32 305.81 295.76 305.81C302.19 305.81 307.41 300.6 307.41 294.16C307.41 287.73 302.19 282.51 295.76 282.51Z" id="a1doShTQ0n"></path></defs><g><g><g><g><filter id="shadow8060721" x="27.95" y="59.41" width="590.43" height="576.14" filterUnits="userSpaceOnUse" primitiveUnits="userSpaceOnUse"><feFlood></feFlood><feComposite in2="SourceAlpha" operator="in"></feComposite><feGaussianBlur stdDeviation="1"></feGaussianBlur><feOffset dx="1" dy="1" result="afterOffset"></feOffset><feFlood flood-color="#000000" flood-opacity="0.5"></feFlood><feComposite in2="afterOffset" operator="in"></feComposite><feMorphology operator="dilate" radius="1"></feMorphology><feComposite in2="SourceAlpha" operator="out"></feComposite></filter><path d="M608.38 346.98C608.38 500.73 480.36 625.55 322.67 625.55C164.98 625.55 36.95 500.73 36.95 346.98C36.95 193.23 164.98 68.41 322.67 68.41C480.36 68.41 608.38 193.23 608.38 346.98Z" id="e10BLsUpkD" fill="white" fill-opacity="1" filter="url(#shadow8060721)"></path></g><use xlink:href="#bwSnpJkvB" opacity="1" fill="#ffffff" fill-opacity="0"></use><g><use xlink:href="#bwSnpJkvB" opacity="1" fill-opacity="0" stroke="#ffffff" stroke-width="30" stroke-opacity="1"></use></g></g><g><use xlink:href="#a6f4MxsQA" opacity="1" fill="#ffffff" fill-opacity="1"></use><g><use xlink:href="#a6f4MxsQA" opacity="1" fill-opacity="0" stroke="#000000" stroke-width="1" stroke-opacity="0"></use></g></g><g><use xlink:href="#b6boUWyw5I" opacity="1" fill="#ffffff" fill-opacity="1"></use><g><use xlink:href="#b6boUWyw5I" opacity="1" fill-opacity="0" stroke="#000000" stroke-width="1" stroke-opacity="0"></use></g></g><g><use xlink:href="#a1doShTQ0n" opacity="1" fill="#ffffff" fill-opacity="1"></use><g><use xlink:href="#a1doShTQ0n" opacity="1" fill-opacity="0" stroke="#000000" stroke-width="1" stroke-opacity="0"></use></g></g></g></g></svg>